<svg version="1.1" xmlns="http://www.w3.org/2000/svg" xmlns:xlink="http://www.w3.org/1999/xlink" width="457.88951" height="386.76282" viewBox="0,0,457.88951,386.76282"><g transform="translate(14.78899,33.96351)"><g data-paper-data="{&quot;isPaintingLayer&quot;:true}" stroke-miterlimit="10" stroke-dasharray="" stroke-dashoffset="0" style="mix-blend-mode: normal"><path d="M282.81006,9.3428c1.55655,-1.0377 4.1508,-0.51885 4.66965,1.55655l13.49009,55.51692c0,0 33.20638,24.38594 43.06453,41.50798c16.60319,28.53674 17.12204,51.88497 17.12204,51.88497c0,0 36.83833,10.89584 43.06453,40.47028c6.2262,29.57443 -16.60319,85.61021 -114.14694,104.80765c-97.54375,19.19744 -175.89006,-7.2639 -212.72839,-66.41277c-36.83833,-59.14887 21.27284,-129.71243 18.15974,-125.56164l-10.89584,-92.8741c-0.51885,-2.0754 2.0754,-3.63195 4.1508,-2.59425l62.78082,40.98913c0,0 23.34824,-8.82045 47.73418,-9.85814c14.52779,-1.0377 26.98019,0 38.91373,2.0754z" fill="#ffab19" fill-rule="evenodd" stroke="#001026" stroke-width="1.2" stroke-linecap="butt" stroke-linejoin="miter"/><path d="M359.59982,161.88462c0,0 35.80063,9.3393 42.02683,38.91373c6.2262,29.57443 -18.67859,83.01596 -115.18464,101.69455c-125.56164,25.94249 -185.22936,-48.77187 -150.46642,-103.76995c34.76293,-55.51692 94.43065,-8.3016 138.01403,-11.41469c37.35718,-2.59425 41.50798,-35.28178 85.61021,-25.42364z" fill="#ffffff" fill-rule="evenodd" stroke="none" stroke-width="1" stroke-linecap="butt" stroke-linejoin="miter"/><path d="M196.16215,217.40154c0,-2.0754 2.0754,-3.63195 4.1508,-3.1131c9.85814,3.63195 37.87603,11.93354 69.00701,14.00894c28.01789,1.55655 44.62108,0 52.40382,-1.55655c2.59425,-0.51885 4.66965,2.0754 3.63195,4.66965c-4.66965,14.00894 -24.38594,52.92267 -78.86516,49.80957c-47.21533,-5.1885 -51.88497,-38.39488 -50.32842,-63.81852z" fill="#ffffff" fill-rule="evenodd" stroke="#001026" stroke-width="1.2" stroke-linecap="round" stroke-linejoin="round"/><path d="M271.91421,173.81816c10.89584,0 22.31054,1.0377 22.82939,4.66965c0.51885,7.2639 -7.2639,21.79169 -15.56549,22.31054c-9.3393,1.0377 -31.13098,-11.93354 -31.13098,-20.23514c-0.51885,-6.2262 13.49009,-6.74505 23.86709,-6.74505z" fill="#001026" fill-rule="evenodd" stroke="#001026" stroke-width="1.2" stroke-linecap="round" stroke-linejoin="round"/><path d="M333.13848,113.11275c15.04664,23.34824 15.56549,49.80957 1.0377,59.14887c-14.52779,9.3393 -38.39488,-1.55655 -53.96037,-24.90479c-15.04664,-23.34824 -15.56549,-49.80957 -1.0377,-59.14887c14.52779,-9.85814 38.91373,1.55655 53.96037,24.90479z" fill="#ffffff" fill-rule="evenodd" stroke="#001026" stroke-width="1.2" stroke-linecap="round" stroke-linejoin="round"/><path d="M325.89423,130.18718c0,11.71527 -8.5202,21.3005 -19.17045,21.3005c-10.65025,0 -19.17045,-9.58522 -19.17045,-21.3005c0,-11.71527 8.5202,-21.3005 19.17045,-21.3005c10.65025,0 19.17045,9.58522 19.17045,21.3005" fill="#001026" fill-rule="evenodd" stroke="none" stroke-width="1" stroke-linecap="butt" stroke-linejoin="miter"/><path d="M204.46375,127.64054c15.56549,22.82939 14.52779,50.84727 0.51885,60.70542c-17.12204,9.85814 -39.95143,2.59425 -55.51692,-20.23514c-16.08434,-22.82939 -17.12204,-52.40382 -1.0377,-63.81852c16.08434,-11.93354 40.47028,0.51885 56.03577,23.34824z" fill="#ffffff" fill-rule="evenodd" stroke="#001026" stroke-width="1.2" stroke-linecap="round" stroke-linejoin="round"/><path d="M193.85065,144.23382c0,13.04068 -9.48413,23.71033 -21.3393,23.71033c-11.85516,0 -21.3393,-10.66965 -21.3393,-23.71033c0,-13.04068 9.48413,-23.71033 21.3393,-23.71033c11.85516,1.18552 21.3393,10.66965 21.3393,23.71033" fill="#001026" fill-rule="evenodd" stroke="none" stroke-width="1" stroke-linecap="butt" stroke-linejoin="miter"/><text transform="translate(102,86.32395) scale(0.5,0.5)" font-size="40" xml:space="preserve" fill="#10ff00" fill-rule="nonzero" stroke="none" stroke-width="1" stroke-linecap="butt" stroke-linejoin="miter" stroke-miterlimit="10" stroke-dasharray="" stroke-dashoffset="0" font-family="Sans Serif" font-weight="normal" text-anchor="start" style="mix-blend-mode: normal"><tspan x="0" dy="0">10101010101010101010</tspan></text><text transform="translate(126.5,261) scale(0.5,0.5)" font-size="40" xml:space="preserve" fill="#10ff00" fill-rule="nonzero" stroke="none" stroke-width="1" stroke-linecap="butt" stroke-linejoin="miter" stroke-miterlimit="10" stroke-dasharray="" stroke-dashoffset="0" font-family="Sans Serif" font-weight="normal" text-anchor="start" style="mix-blend-mode: normal"><tspan x="0" dy="0">101010100010101011010</tspan></text><text transform="translate(81.24254,172.82904) scale(0.5,0.5)" font-size="40" xml:space="preserve" fill="#002fff" fill-rule="nonzero" stroke="none" stroke-width="1" stroke-linecap="butt" stroke-linejoin="miter" stroke-miterlimit="10" stroke-dasharray="" stroke-dashoffset="0" font-family="Sans Serif" font-weight="normal" text-anchor="start" style="mix-blend-mode: normal"><tspan x="0" dy="0">LET'S</tspan></text><text transform="translate(214.97621,146.57457) scale(0.5,0.5)" font-size="40" xml:space="preserve" fill="#002fff" fill-rule="nonzero" stroke="none" stroke-width="1" stroke-linecap="butt" stroke-linejoin="miter" stroke-miterlimit="10" stroke-dasharray="" stroke-dashoffset="0" font-family="Sans Serif" font-weight="normal" text-anchor="start" style="mix-blend-mode: normal"><tspan x="0" dy="0">CODE!</tspan></text><path d="M47.6048,66.12961c-1.88184,3.31399 -3.77066,6.62417 -5.66823,9.92962c1.05035,-1.5261 2.09866,-3.0538 3.14485,-4.5831c0.67134,-1.28135 1.30785,-2.56889 1.88289,-3.86864c0.21711,-0.49073 0.43033,-0.9835 0.64049,-1.47788zM29.80753,101.60239c-0.02211,0.01948 -0.04427,0.03889 -0.06649,0.05822l0.01178,0.00981l-3.1887,3.82644c-0.4585,0.55817 -1.15406,0.91421 -1.93278,0.91421c-1.38071,0 -2.5,-1.11929 -2.5,-2.5c0,-0.49068 0.14136,-0.94835 0.38559,-1.33449l2.18347,-3.586c1.98533,-4.03101 3.86431,-8.12431 5.82601,-12.17265c-6.49301,10.43318 -12.99722,20.85938 -19.5316,31.26667c-2.65871,4.23453 -5.31693,8.46937 -7.97614,12.70359c-1.727,2.74986 -2.55347,6.18951 -4.90233,8.42305c-0.2654,0.4885 -0.53289,0.97585 -0.80273,1.4619l-1.6498,2.96963c-0.41981,0.7909 -1.25182,1.32954 -2.20964,1.32954c-0.7068,0 -1.34509,-0.29331 -1.7998,-0.76486l-0.83533,1.485c-0.42187,0.78422 -1.25023,1.31731 -2.20311,1.31731c-1.38071,0 -2.5,-1.11929 -2.5,-2.5c0,-0.37643 0.0832,-0.73343 0.2322,-1.05361l1.98505,-4.52941l0.01893,0.0083l0.00719,-0.0659c4.89371,-9.79128 9.43935,-19.75685 14.35608,-29.53415c6.39727,-12.72144 13.67203,-25.07668 20.48911,-37.57939c8.72033,-16.14881 17.42829,-32.29535 25.97972,-48.53018c-10.21932,16.31218 -20.02971,32.90195 -30.05143,49.32643c-2.60432,4.2682 -5.20863,8.5364 -7.81297,12.80459c-1.3485,2.21003 -1.89635,5.20933 -4.07069,6.61466l-0.55186,0.88298c-0.1386,0.27503 -0.27692,0.55019 -0.41495,0.82548l-0.14278,0.09151l0.06063,0.04042l-1.6194,2.42909c-0.44514,0.68925 -1.2201,1.14551 -2.10163,1.14551c-1.38071,0 -2.5,-1.11929 -2.5,-2.5c0,-0.50054 0.1471,-0.96673 0.40043,-1.35768l1.99488,-3.1918c0.33878,-0.67546 0.67954,-1.34991 1.02219,-2.02342c0.29768,-0.68921 0.66123,-1.3853 1.06672,-2.08215c0.95653,-1.85435 1.92663,-3.70186 2.9082,-5.54358l-1.19781,1.67694c-0.45157,0.64913 -1.20302,1.07402 -2.0537,1.07402c-1.38071,0 -2.5,-1.11929 -2.5,-2.5c0,-0.41989 0.10352,-0.81561 0.28642,-1.16302l1.61841,-3.23682l0.04141,0.02071l0.01417,-0.12557c1.39267,-2.23317 2.78747,-4.46502 4.18246,-6.69674c0.20826,-0.31243 0.41607,-0.62513 0.62343,-0.93808c-0.13044,-0.30298 -0.20269,-0.6369 -0.20269,-0.9877c0,-0.34826 0.07121,-0.67989 0.19986,-0.98112l1.61985,-4.04962l0.05373,0.02149l0.0107,-0.16866c9.64616,-17.32843 19.35996,-34.60609 27.47819,-52.71597c2.51384,-5.60779 5.31922,-11.12276 7.15042,-16.99312c0.49631,-1.59105 0.96178,-3.19211 1.49137,-4.7724c0.07916,-0.2362 0.15593,-0.47358 0.23223,-0.71128c-0.6533,0.86961 -1.36551,1.68853 -1.97745,2.47718c-12.41269,15.95283 -23.74993,32.96406 -35.10017,49.69074c-3.70717,5.4632 -7.41691,10.92461 -11.12942,16.38418c-1.87437,2.75642 -3.25067,5.92775 -5.6231,8.26927l-2.79059,4.10381c-0.44718,0.67781 -1.2155,1.12505 -2.08828,1.12505c-1.38071,0 -2.5,-1.11929 -2.5,-2.5c0,-0.51011 0.15278,-0.98453 0.41507,-1.38001l1.79246,-2.79688c2.18621,-4.37158 4.70977,-8.41408 7.14351,-12.6462c8.4347,-14.6674 16.11881,-29.87331 23.83137,-44.93117c0.51633,-1.00807 1.03266,-2.01615 1.54899,-3.02422c-0.95868,1.81452 -1.95099,3.6049 -3.00812,5.34353c-2.31788,3.81215 -4.78503,7.53067 -7.25095,11.25161c-0.33622,0.54575 -0.67243,1.09151 -1.00862,1.63728c-0.64648,1.04947 -4.59511,7.57353 -5.4442,8.49312l-2.75199,4.12799c-0.44514,0.68925 -1.2201,1.14551 -2.10163,1.14551c-1.38071,0 -2.5,-1.11929 -2.5,-2.5c0,-0.52532 0.16203,-1.0128 0.43883,-1.41519l1.59718,-2.39577c0.44221,-0.73707 0.89031,-1.4703 1.34324,-2.20039c0.25496,-0.55668 0.60277,-1.0671 0.97972,-1.56337c1.75536,-2.77458 3.56982,-5.51045 5.38317,-8.24614c0.47183,-0.77615 0.94435,-1.55187 1.42067,-2.3252c3.12606,-5.07523 6.06218,-10.37397 9.35775,-15.35881c1.60826,-3.12155 3.14224,-6.29238 4.76472,-9.36654c1.58219,-2.99783 3.52734,-6.06908 5.13744,-9.1891c-6.83611,8.30309 -13.68106,16.73494 -21.23225,24.292c0,0 -1.76777,1.76777 -3.53553,0c-1.76777,-1.76777 0,-3.53553 0,-3.53553c9.33515,-9.32754 17.55319,-20.04042 26.05395,-30.13125l2.41218,-3.21624c0.45492,-0.62044 1.18914,-1.02328 2.01746,-1.02328c1.38071,0 2.5,1.11929 2.5,2.5c0,0.18573 -0.02025,0.36673 -0.05867,0.54091l-0.97046,4.85228c-0.03187,1.18041 -0.26574,2.38343 -0.64051,3.59315c1.37615,0.00534 2.49009,1.12257 2.49009,2.49998c0,0.18573 -0.02025,0.36673 -0.05867,0.54091l-0.81033,4.05164l-0.03921,-0.00784c-0.01484,0.11359 -0.03195,0.22705 -0.05152,0.34036c-0.01781,0.10316 -4.55056,8.93654 -4.69437,9.21731c-2.27938,4.45022 -4.55876,8.90043 -6.83814,13.35065c-2.25776,4.40802 -4.51336,8.8284 -6.78597,13.24425c7.87277,-11.52152 15.90851,-22.9412 24.43815,-33.91212c2.71649,-3.48492 10.08458,-14.11061 12.06059,-2.93448c0.34518,1.95233 -1.03699,3.82754 -1.59621,5.72966c-0.96783,3.29196 -2.08509,6.44002 -3.31572,9.55092c1.67174,-2.96855 3.33523,-5.94218 4.98949,-8.92162l1.78507,-3.21501c0.41972,-0.79121 1.2519,-1.33012 2.20995,-1.33012c1.38071,0 2.5,1.11929 2.5,2.5v3.28181h-0.07286c0.01002,0.21184 0.00732,0.42491 -0.0103,0.63942c-0.15385,1.87371 -1.79964,3.30145 -2.71656,4.94271c-1.45424,2.60306 -2.92687,5.19629 -4.40551,7.78619c0.8483,0.39983 1.43539,1.26268 1.43539,2.26265c0,0.08095 -0.00385,0.161 -0.01137,0.23998c4.46128,-6.92846 8.9136,-13.86186 13.28595,-20.84722l1.80091,-2.87716c0.43764,-0.72524 1.2332,-1.21018 2.14202,-1.21018c1.38071,0 2.5,1.11929 2.5,2.5c0,0.36388 -0.07774,0.7096 -0.21752,1.02146l-1.91868,4.55686c-0.35802,1.62776 -1.29321,3.07225 -1.94029,4.60818c-3.26083,7.7401 -7.37684,15.08684 -11.24889,22.53742c-9.84169,18.93734 -20.01153,37.69205 -30.15209,56.47082c-0.514,0.94269 -1.03064,1.88454 -1.54934,2.82577c3.85025,-6.39811 7.69738,-12.79809 11.53926,-19.20123c5.71003,-9.51672 11.26615,-19.39513 17.84179,-28.34895c2.95845,-4.02842 6.3308,-7.73592 9.29153,-11.77505l2.17887,-2.97138c0.4535,-0.63372 1.19574,-1.04672 2.03444,-1.04672c0.17337,0 0.34262,0.01765 0.50604,0.05124c3.9111,-6.87042 7.68451,-13.82428 11.25147,-20.90892l0.07297,-0.06484l-0.02654,-0.01592l2.43778,-4.06297c0.43183,-0.74893 1.24069,-1.25305 2.16731,-1.25305c1.38071,0 2.5,1.11929 2.5,2.5c0,0.35702 -0.07484,0.69657 -0.20968,1.0038l-1.88237,4.57147c-0.34343,1.6309 -1.26851,3.08253 -1.90375,4.62339c-3.21254,7.79247 -7.66403,15.00145 -11.76277,22.36076c-4.93094,8.85352 -9.8565,17.7083 -14.80989,26.5472c0.14051,0.04439 0.28623,0.1021 0.43721,0.17479c0.86225,0.41517 1.23551,1.00148 1.36779,1.56707c6.29366,-9.47161 12.49609,-19.00326 18.59155,-28.59468c4.12699,-6.48977 7.34173,-13.435 11.80823,-19.70112l2.79768,-4.07857c0.44803,-0.67275 1.2134,-1.11603 2.0823,-1.11603c1.38071,0 2.5,1.11929 2.5,2.5c0,0.29619 -0.05151,0.58035 -0.14606,0.84401l-1.55885,4.68933l-0.03716,-0.01235c-0.0193,0.08763 -0.03967,0.1751 -0.06117,0.2624c-0.01566,0.06358 -5.11206,8.63468 -5.23147,8.83571c-2.55343,4.29883 -5.10687,8.59767 -7.6603,12.8965c-0.30282,0.50981 -0.60625,1.01913 -0.91027,1.52798c-0.888,1.89825 -1.75282,3.80926 -2.73232,5.75844c-4.30226,8.56136 -9.5881,16.66727 -14.66105,24.7806c-2.65077,4.23947 -5.29499,8.48315 -7.95236,12.71849c-0.93588,1.4916 -1.48437,3.31645 -2.81423,4.47066c-0.07149,0.06205 -0.14373,0.12305 -0.21667,0.18307l0.02814,0.02814l-3.53553,3.53553l-0.22077,-0.22077c-2.9283,4.42344 -5.89572,8.81856 -8.90225,13.18201l-0.15579,0.07958l0.05043,0.04541l-2.16048,2.39922c-0.45782,0.51264 -1.12384,0.83537 -1.86524,0.83537c-0.80379,0 -1.51899,-0.37933 -1.97633,-0.96875c-1.7471,2.42208 -4.32927,6.00149 -4.33382,6.00549z" fill="#ff0000" fill-rule="nonzero" stroke="none" stroke-width="0.5" stroke-linecap="butt" stroke-linejoin="miter"/><path d="M159.18548,29.28858c-2.5,0 -2.5,-2.5 -2.5,-2.5l0.26393,-2.75894c1.87617,-3.75234 4.06122,-7.3062 6.11582,-10.92852c-0.95638,1.1119 -1.89965,2.18027 -2.71801,3.18048c-3.17548,3.88114 -6.65625,7.44564 -9.8911,11.26763c-4.75284,5.6155 -8.12097,12.86765 -13.42823,17.988l-2.86363,4.00908c-0.45157,0.64913 -1.20302,1.07402 -2.0537,1.07402c-0.84907,0 -1.59928,-0.42328 -2.05113,-1.07033c-0.45185,0.64705 -1.20206,1.07033 -2.05113,1.07033c-1.38071,0 -2.5,-1.11929 -2.5,-2.5c0,-0.4941 0.14334,-0.95473 0.39071,-1.34256l1.7895,-2.91239c0.39339,-0.9733 0.78545,-1.946 1.18155,-2.91633c-1.27394,-0.11508 -2.27218,-1.18584 -2.27218,-2.48976c0,-0.3654 0.07839,-0.71249 0.21927,-1.02536l1.92673,-4.55359l0.02422,0.01025l0.01049,-0.08852c3.93009,-7.76426 7.87726,-16.00039 12.38203,-23.69281c-2.02573,2.33158 -4.0515,4.66284 -6.03941,7.02568c-4.08059,4.85022 -7.74368,9.70127 -11.93998,14.18928c-0.15794,0.33205 -0.31351,0.6655 -0.46646,1.00048l0.05319,0.03192l-2.43778,4.06297c-0.43183,0.74893 -1.24069,1.25305 -2.16731,1.25305c-1.38071,0 -2.5,-1.11929 -2.5,-2.5c0,-0.48282 0.13687,-0.93368 0.37393,-1.31588l2.09344,-3.5112c2.12124,-4.71805 4.85639,-9.00904 7.39155,-13.45297c-1.34957,1.59143 -2.78656,3.13438 -4.24709,4.62124c-0.07994,0.10697 -0.15998,0.21388 -0.24014,0.32074l-1.59051,2.38577c-0.44514,0.68925 -1.2201,1.14551 -2.10163,1.14551c-1.38071,0 -2.5,-1.11929 -2.5,-2.5c0,-0.52532 0.16203,-1.0128 0.43883,-1.41519l1.62194,-2.43292l0.04471,0.02981l-0.00543,-0.08699c0.34543,-0.46069 0.68707,-0.92304 1.02575,-1.38674c-1.51084,1.60126 -3.5539,4.75487 -4.83477,5.61216c-0.06305,0.0422 -0.12647,0.08375 -0.19023,0.12466l0.01984,0.0248l-3.88879,3.11103c-0.43024,0.35027 -0.97924,0.56027 -1.57729,0.56027c-1.38071,0 -2.5,-1.11929 -2.5,-2.5c0,-0.46924 0.12928,-0.90828 0.35416,-1.28345l2.26352,-3.93874c1.97797,-4.56524 4.1372,-9.04044 6.20614,-13.56389c-0.84388,0.99998 -1.59575,1.89478 -1.90055,2.28563c-3.75211,4.81119 -7.51361,9.6137 -11.24081,14.44413l-0.13112,0.05736l0.04247,0.04055l-1.94808,2.04034c-0.45543,0.47875 -1.09867,0.77717 -1.8116,0.77717c-1.38071,0 -2.5,-1.11929 -2.5,-2.5c0,-0.52532 0.16203,-1.0128 0.43883,-1.41519l1.62194,-2.43292l0.02222,0.01481c0.01781,-0.0414 0.03605,-0.08267 0.05472,-0.1238c1.23076,-2.71125 3.63045,-4.69557 5.6022,-6.95298c-0.62766,0.31381 -2.06767,0.78197 -3.17199,-0.76407c-1.4531,-2.03433 0.58124,-3.48743 0.58124,-3.48743c4.78578,-3.41149 8.93095,-7.4736 13.51739,-11.14259l2.58931,-2.55077c0.44486,-0.43875 1.05338,-0.71198 1.72571,-0.71982c0.09471,-0.12205 0.18927,-0.24423 0.28366,-0.36656l0.12325,-0.06488l-0.0346,-0.03303l1.94808,-2.04034c0.45543,-0.47875 1.09867,-0.77717 1.8116,-0.77717c1.38071,0 2.5,1.11929 2.5,2.5c0,0.18573 -0.02025,0.36673 -0.05867,0.54091l-0.81033,4.05164l-0.03364,-0.00673c-0.01039,0.09135 -0.02213,0.18264 -0.03532,0.27387c-0.00959,0.06636 -2.89379,6.54852 -3.37978,7.64198c-1.0236,2.3031 -2.08321,4.58717 -3.14554,6.8693c2.50933,-2.28973 5.1604,-4.46882 7.11675,-6.82375l0.06817,-0.04654l-0.01357,-0.01288l3.35885,-3.53891c0.45575,-0.48216 1.10131,-0.78302 1.81714,-0.78302c0.68042,0 1.29736,0.27183 1.74814,0.71282c0.11298,-0.13267 0.22671,-0.26495 0.34124,-0.39684l1.51877,-2.39913c0.43909,-0.71884 1.23102,-1.19865 2.13502,-1.19865c1.38071,0 2.5,1.11929 2.5,2.5c0,0.11851 -0.00825,0.23509 -0.0242,0.34921l-0.61528,4.92227l-0.04416,-0.00552c-0.00663,0.11984 -0.01537,0.23971 -0.02637,0.35961c-0.16328,1.77925 -1.41517,3.28129 -2.12963,4.91895c-0.05343,0.12247 -0.10724,0.24472 -0.16141,0.36677c3.10497,-3.65479 6.2293,-7.29339 9.3257,-10.96149l0.09468,-0.05545l-0.02121,-0.02121l2.46136,-2.46136c0.45241,-0.45241 1.07741,-0.73223 1.76777,-0.73223c1.38071,0 2.5,1.11929 2.5,2.5v5l-0.04686,0c-0.00208,0.20458 -0.01173,0.40951 -0.02993,0.61486c-0.02198,0.24805 -4.71254,8.85071 -4.99458,9.3695c-1.67061,3.07285 -3.3703,6.131 -5.05849,9.19527c0.24441,0.16466 0.45814,0.37137 0.63083,0.60975c5.04853,-7.59003 10.5688,-14.92954 16.36813,-21.88057l2.63786,-4.06647c0.44207,-0.70495 1.22607,-1.17366 2.11955,-1.17366c1.38071,0 2.5,1.11929 2.5,2.5c0,0.44751 -0.11758,0.86756 -0.32354,1.23094l-2.35742,4.3563l-0.01539,-0.00833c-0.0106,0.03079 -0.02132,0.06154 -0.03215,0.09227c-0.56483,1.60217 -1.84132,2.85542 -2.76237,4.28289c-2.03759,3.1579 -4.07683,6.31098 -6.14504,9.44732c2.31549,-2.78534 4.64064,-5.57236 6.95328,-8.39714c2.04905,-2.50282 6.42047,-11.10572 9.75867,-11.16827c1.90929,-0.03577 2.72463,3.01484 2.94965,4.91115c0.42296,3.56453 -3.74809,10.15519 -5.49135,12.95596c-2.06213,3.31307 -3.69411,6.8325 -5.43845,10.32118l0.26393,0.52287c0,0 0,2.5 -2.5,2.5z" fill="#ffd200" fill-rule="nonzero" stroke="none" stroke-width="0.5" stroke-linecap="butt" stroke-linejoin="miter"/><path d="M61.58157,145.84377c0,0 0.03258,-0.01086 0.09136,-0.02621l0.04326,-0.38937c-0.08981,0.15462 -0.17959,0.30817 -0.26905,0.46055c0.04495,-0.01437 0.08976,-0.02935 0.13442,-0.04497zM63.16271,150.58718c-1.52169,0.48907 -3.17236,0.41189 -4.757,0.63575c-3.60357,6.34083 -7.62531,12.4453 -11.48716,18.63873c-0.48789,1.35312 -1.14774,2.7705 -2.08599,4.44667l-0.80111,1.40195c0,0 -1.24035,2.17061 -3.41096,0.93026c-0.30483,-0.17419 -0.54238,-0.36672 -0.72555,-0.56901l-0.98933,0.52503c-0.01963,-0.87442 -0.1514,-1.76203 -0.23921,-2.64447l-0.81817,-0.27272l0.39024,-1.17071c-1.23002,1.16651 -2.43605,2.35359 -3.53978,3.62859c-0.73653,0.85082 -1.45228,1.70765 -2.15928,2.56553l-0.47242,2.49687c-0.20007,1.18034 -1.22743,2.07919 -2.46474,2.07919c-0.25768,0 -0.50625,-0.03898 -0.74013,-0.11137c-1.22805,1.4578 -2.49233,2.89304 -3.85434,4.28034l-2.46463,3.27162c-0.45517,0.61782 -1.18781,1.01866 -2.01406,1.01866c-1.38071,0 -2.5,-1.11929 -2.5,-2.5c0,-0.38089 0.08518,-0.74189 0.23753,-1.06498l2.00863,-4.51942c0.41926,-1.91944 3.31419,-6.20849 4.02699,-7.3682c0.75832,-1.23378 1.51314,-2.46926 2.27037,-3.7027c0.31915,-5.0434 0.92753,-10.01736 1.52366,-15.03401c0.50701,-4.26669 1.11445,-8.52004 1.81795,-12.75717c-0.45605,0.60789 -1.18263,1.00117 -2.00106,1.00117c-1.25484,0 -2.29374,-0.92451 -2.47274,-2.12954l-0.8137,-4.88217l0.04592,-0.00765c-0.03113,-0.18019 -0.05665,-0.36171 -0.07593,-0.54471c-0.19385,-1.83985 0.96765,-3.57135 1.4658,-5.35306c0.85793,-3.06853 1.82994,-6.10576 2.86688,-9.11876c-2.49062,3.47702 -5.13245,6.83148 -8.02643,9.94711l0.3775,0.25167l-2.75199,4.12799c-0.44514,0.68925 -1.2201,1.14551 -2.10163,1.14551c-1.38071,0 -2.5,-1.11929 -2.5,-2.5c0,-0.22872 0.03071,-0.45026 0.08824,-0.66073l0.80685,-3.22742l0.10351,0.02588l-0.02286,-0.2869c0.39878,-0.80431 0.80212,-1.60646 1.20958,-2.40666l-2.1322,1.86568c-0.44092,0.38989 -1.02051,0.62653 -1.65538,0.62653c-1.38071,0 -2.5,-1.11929 -2.5,-2.5c0,-0.29691 0.05176,-0.58173 0.14675,-0.84593l0.802,-2.40599l0.06559,0.02186l-0.00359,-0.188c6.40479,-12.85577 13.81932,-25.75851 23.44186,-36.47927c3.06343,-3.41306 6.45548,-8.64176 10.16729,-11.30566c0.05564,-0.03993 0.11156,-0.07941 0.16775,-0.11845l-0.01294,-0.01618l3.88879,-3.11103c0.43024,-0.35027 0.97924,-0.56027 1.57729,-0.56027c0.65829,0 1.25716,0.25443 1.70362,0.67032c3.36839,-5.82836 6.82377,-11.60228 10.49725,-17.24137l0.00519,-0.0053l-0.00119,-0.00078l0.23773,-0.36024c2.83653,-5.99876 5.71341,-11.92959 9.12192,-17.72265c2.2936,-3.89818 4.32986,-7.82837 6.39609,-11.851c1.52143,-2.96198 3.00524,-6.44255 5.47669,-8.81424l2.96106,-3.99154c0.45426,-0.6269 1.19239,-1.03466 2.02576,-1.03466c1.38071,0 2.5,1.11929 2.5,2.5c0,0.33222 -0.0648,0.64931 -0.18246,0.93932l-1.72287,4.54851c-3.10125,10.85461 -8.45936,21.1583 -10.29835,32.30197c0,0 -0.33105,1.98628 -2.18157,2.09644c0.35892,0.43281 0.57468,0.98862 0.57468,1.59483c0,0.29691 -0.05176,0.58173 -0.14675,0.84593l-0.802,2.40599l-0.02467,-0.00822c-0.00702,0.04609 -0.01457,0.09214 -0.02267,0.13817c-0.20179,1.14665 -0.7912,2.1722 -1.37328,3.19999c0.01204,0.00977 0.02394,0.01962 0.03571,0.02956c0.20849,-0.05637 0.42779,-0.08644 0.65411,-0.08644c1.38071,0 2.5,1.11929 2.5,2.5v3.28181h-0.02974c0.00519,0.11031 0.00781,0.22091 0.00762,0.33183c-0.00475,2.75568 -1.19988,6.21696 -2.49724,9.37179l0.34952,1.2228l-0.03649,0.01043c0.04756,0.1697 0.09024,0.34108 0.12749,0.51434c0.3874,1.80212 -0.49289,3.65357 -0.76191,5.47712c-0.00756,0.05128 -0.01534,0.1025 -0.02333,0.15366c1.83608,-4.1678 3.67484,-8.33406 5.5299,-12.49176l0.11477,-0.10916l-0.04023,-0.02414l2.43778,-4.06297c0.43183,-0.74893 1.24069,-1.25305 2.16731,-1.25305c1.38071,0 2.5,1.11929 2.5,2.5c0,0.16973 -0.01691,0.33551 -0.04915,0.49574l-0.8856,4.87082c-0.04315,3.8436 -1.9622,7.5339 -3.72155,11.02303c0.03167,0.00373 0.06347,0.00809 0.09541,0.01309c2.20907,0.34557 3.33806,3.37174 3.73416,5.5723c0.35193,1.95516 -1.10755,3.81601 -1.70314,5.71121c-1.5091,4.80199 -3.35145,9.48287 -5.11331,14.19508c-3.7558,10.04496 -7.47881,20.06941 -12.25448,29.67612l-1.59126,3.97815c-0.32673,0.87504 -1.12965,1.51789 -2.09352,1.61332c-0.49657,0.50341 -1.09963,0.70443 -1.09963,0.70443zM60.49363,76.78616c0.45955,-1.31123 0.90177,-2.62933 1.32526,-3.95314c-0.99485,1.52933 -2.0211,3.04282 -2.96184,4.59852c-0.32502,0.67006 -0.65009,1.34005 -0.9751,2.01002c0.04631,-0.04662 0.09263,-0.09322 0.13898,-0.1398c0.07636,-0.08809 0.15877,-0.1708 0.2466,-0.24746c0.00704,-0.00705 0.01407,-0.0141 0.02111,-0.02115c0.75298,-0.75424 1.48567,-1.5011 2.205,-2.247zM41.72826,151.31088l0.7803,-2.4219c0.05256,-0.17043 0.10548,-0.34076 0.15874,-0.51099c-1.3662,2.01885 -2.80387,3.98329 -4.35901,5.85616l-0.88964,1.52263c0.24814,-0.1151 0.49968,-0.22457 0.75115,-0.33395c0.97631,-1.30475 2.21777,-2.87691 3.55846,-4.11195zM63.60258,125.5273c-0.9028,2.55079 -1.673,5.15275 -2.13479,7.8727l-0.28115,0.27504l0.13976,0.06988l-0.88966,1.77932c0.17276,-0.31082 0.36927,-0.60675 0.59993,-0.88124c0.06051,-0.07201 0.1221,-0.14289 0.18471,-0.21272l-0.02878,-0.02159l2.4439,-3.25853c0.45492,-0.62044 1.18914,-1.02328 2.01746,-1.02328c0.90056,0 1.6899,0.47617 2.12999,1.19046c0.15267,0.09406 0.29446,0.20408 0.42305,0.32773c2.60464,-6.18547 4.9539,-12.47591 7.31127,-18.78098c1.74259,-4.66067 3.38139,-9.3414 5.05324,-14.02515c0.32947,-0.92303 0.68523,-1.83649 1.0477,-2.74722c-1.6291,3.35771 -4.07365,6.47987 -6.49125,9.55589c-2.39035,4.67569 -4.82724,9.32905 -7.18182,14.0326l-1.59026,3.97566c-0.35452,0.94948 -1.26971,1.62559 -2.34282,1.62559c-0.09642,0 -0.19157,-0.00546 -0.28515,-0.01608c-0.04192,0.08724 -0.0837,0.17454 -0.12532,0.26192zM55.68332,137.85109c-1.86886,3.40551 -3.67215,8.19528 -6.02804,11.63258c1.02886,-0.57355 2.06338,-1.12241 3.10243,-1.60732c2.02814,-3.31904 4.16551,-6.56317 6.55844,-9.53588c0.26551,-0.75043 0.50527,-1.51711 0.82828,-2.23159l-0.43471,0.86942c-0.40086,0.84561 -1.26228,1.43041 -2.26029,1.43041c-0.6585,0 -1.25754,-0.25459 -1.70405,-0.67072c-0.02068,0.0377 -0.04137,0.07541 -0.06206,0.11311zM46.56265,129.63384c-1.29598,2.61015 -2.56061,5.24616 -3.80227,7.89412c-0.36921,1.05684 -0.73868,2.11359 -1.10871,3.17014c2.06013,-3.34728 4.02994,-6.75894 6.10505,-10.07893c1.64902,-2.63827 3.32931,-5.25731 5.03467,-7.86028c-0.45857,0.53943 -1.14211,0.88167 -1.90559,0.88167c-0.40647,0 -0.79028,-0.097 -1.12955,-0.26913c-1.08217,2.0788 -2.15164,4.16383 -3.19361,6.2624zM53.84153,121.16276c0.0745,-0.15412 0.14909,-0.3082 0.22378,-0.46223l-0.82102,1.36836c0.19875,-0.30226 0.39783,-0.6043 0.59724,-0.90613zM73.85384,54.27295c0.959,-5.70202 2.78031,-11.17831 4.76013,-16.61696c-1.68134,3.26957 -3.35962,6.54291 -5.20951,9.68536c-0.84308,1.43216 -1.63571,2.88758 -2.39348,4.35937c0.62218,0.36175 1.074,0.98428 1.20577,1.7179l0.71575,3.57874c0.37568,-0.36683 0.86647,-0.61629 1.4131,-0.68912c-0.68717,-0.86277 -0.49175,-2.03529 -0.49175,-2.03529zM41.75415,114.25233c1.22731,-2.10408 2.45467,-4.20814 3.68203,-6.3122c1.02624,-2.2226 2.072,-4.43452 3.13525,-6.637c0.95887,-2.51539 1.92831,-5.02683 2.90754,-7.53474c-0.3498,0.38966 -0.69989,0.77897 -1.05029,1.16794c-1.56858,3.31386 -3.11828,6.63815 -4.63781,9.97984c-0.6603,1.54024 -1.3206,3.08048 -1.9809,4.62073l-0.03941,0.04176l0.01621,0.0078l-1.70773,3.5471c-0.10899,0.3727 -0.21729,0.74562 -0.32488,1.11876zM33.04889,99.4016c-4.84024,6.37034 -9.09684,13.31244 -12.96026,20.3872c1.18847,-1.16961 2.36686,-2.3537 3.53799,-3.54316c2.3108,-4.10683 4.66491,-8.19 6.99995,-12.27655c0.81425,-1.42502 1.61209,-2.97446 2.42231,-4.56748zM43.81124,159.17796c0.03367,-0.29721 0.06662,-0.59455 0.10103,-0.89165c-0.82965,0.37907 -1.59554,0.73037 -2.14787,0.98894c-2.15834,3.09724 -4.3821,6.12646 -6.532,9.22376c1.63108,-1.53203 3.27656,-3.05141 4.75833,-4.71316c1.32514,-1.4861 2.58609,-3.03418 3.82051,-4.60789zM31.89616,131.86306c0.24322,-0.4058 0.48702,-0.81124 0.73133,-1.21639c0.38346,-1.76325 0.78301,-3.52307 1.19832,-5.27925c-0.63753,2.15668 -1.25594,4.34084 -1.92965,6.49564z" fill="#ffd200" fill-rule="nonzero" stroke="none" stroke-width="0.5" stroke-linecap="butt" stroke-linejoin="miter"/><path d="M196.35997,23.94599c-0.43898,-0.29265 -0.72356,-0.61619 -0.89936,-0.94453c-0.97469,1.89539 -2.04455,3.75157 -2.74625,5.45813l-0.78223,2.34668c-0.31417,1.02156 -1.26534,1.76412 -2.38994,1.76412c-1.12305,0 -2.07314,-0.74051 -2.38863,-1.7599c-2.51073,3.75487 -5.09593,7.46056 -7.89386,11.02358c-2.04633,2.60589 -3.6873,5.5894 -6.14009,7.81686l-2.85546,3.99764c-0.45157,0.64913 -1.20302,1.07402 -2.0537,1.07402c-1.38071,0 -2.5,-1.11929 -2.5,-2.5c0,-0.52453 0.16154,-1.01132 0.43757,-1.41336l1.45998,-2.19448c-0.82652,1.00746 -1.6893,1.93862 -2.60208,2.74874l-2.98254,3.97672c-0.45492,0.62044 -1.18914,1.02328 -2.01746,1.02328c-1.38071,0 -2.5,-1.11929 -2.5,-2.5c0,-0.35748 0.07503,-0.69744 0.21021,-1.00499l1.76935,-4.29049l0.03156,0.01301l0.01107,-0.11046c1.53295,-2.97418 3.30572,-5.82262 4.79012,-8.82133c0.57202,-1.15556 1.05974,-2.34872 1.51987,-3.55419c-6.7831,9.2734 -13.56702,18.5953 -19.45026,28.33195l-0.28785,0.14413l0.08511,0.08511l-2.46136,2.46136l-0.90404,-0.90404l-2.32551,1.16437c0.12765,-0.86631 0.18347,-1.7513 0.25201,-2.63299l-1.0263,-0.51315l1.6409,-3.28181l0.03227,0.01614c0.02469,-0.07108 0.0504,-0.14189 0.07717,-0.21243c0.16196,-0.42673 4.21383,-5.52359 4.99325,-6.67143c5.37213,-7.91154 11.20877,-15.71529 16.37384,-23.74082c0.72971,-1.13383 1.56527,-2.73855 2.46299,-4.31454c-2.93731,2.7233 -5.7706,5.55235 -8.21712,8.8253c0,0 -1.5,2 -3.5,0.5c-2,-1.5 -0.5,-3.5 -0.5,-3.5c5.28637,-7.02695 12.20572,-12.08781 18.2847,-18.32023c4.35545,-4.46538 8.38721,-9.20767 12.81171,-13.63216l1.9539,-1.9539c0.45241,-0.45241 1.07741,-0.73223 1.76777,-0.73223c1.38071,0 2.5,1.11929 2.5,2.5c0,0.48518 -0.13821,0.93808 -0.37741,1.32147l-2.44022,4.06703l-0.00877,-0.00526c-0.00744,0.01864 -0.01492,0.03728 -0.02244,0.05589c-0.6316,1.56375 -1.87048,2.80683 -2.8059,4.21013c-2.78627,4.17988 -5.667,8.2832 -8.55319,12.39448c-0.24956,0.35549 -0.4998,0.71078 -0.75066,1.06588c0.09705,0.57661 0.15367,1.14879 0.1847,1.67322c0.0186,0.31436 -2.43398,6.42098 -3.25465,8.46464c6.65602,-8.84154 13.39884,-17.62108 20.04092,-26.47307l1.59049,-2.38574c0.44514,-0.68925 1.2201,-1.14551 2.10163,-1.14551c0.85098,0 1.60266,0.42518 2.05418,1.0747c1.11312,-1.91755 2.30427,-3.76195 3.90613,-5.49091l0.67473,-2.02419c0.31417,-1.02156 1.26534,-1.76412 2.38994,-1.76412c1.38071,0 2.5,1.11929 2.5,2.5c0,0.15625 -0.01433,0.30915 -0.04176,0.45746l-0.81271,4.87625l-0.0641,-0.01068c-0.01194,0.14619 -0.02743,0.29234 -0.04679,0.43846c-0.23585,1.78001 -1.78646,3.11571 -2.63907,4.69593c-1.33502,2.47431 -2.64456,4.8737 -4.03356,7.23324c1.07011,0.9986 1.12583,3.36039 1.8727,4.79338l-2.03866,3.51627c0,0 -1.38675,2.08013 -3.46688,0.69338z" fill="#fcff00" fill-rule="nonzero" stroke="none" stroke-width="0.5" stroke-linecap="butt" stroke-linejoin="miter"/><path d="M60.14791,225.33621c-0.4415,1.35468 -0.84647,2.677 -1.10442,3.93171l-0.11001,0.12002l0.0672,0.0224l-0.80222,2.40667c-0.31417,1.02156 -1.26534,1.76412 -2.38994,1.76412c-1.38071,0 -2.5,-1.11929 -2.5,-2.5c0,-0.18573 0.02025,-0.36673 0.05867,-0.54091l0.81033,-4.05164l0.30477,0.06095c0.08333,-1.05306 0.36197,-2.02375 0.94083,-3.1938c0.09791,-0.33104 0.19653,-0.66192 0.29482,-0.99289c-0.38178,0.66718 -0.76226,1.33512 -1.14155,2.00383c-1.73308,3.46449 -3.46182,6.91393 -5.03575,10.45113l-0.36715,1.10145c-0.10387,0.33775 -0.27738,0.64501 -0.50376,0.90501c-0.14521,0.34359 -0.28872,0.68818 -0.43041,1.03384l-0.07068,0.06895l0.03052,0.01526l-1.61668,3.23337c-0.40086,0.84561 -1.26228,1.43041 -2.26029,1.43041c-1.38071,0 -2.5,-1.11929 -2.5,-2.5c0,-0.01306 0.0001,-0.02609 0.0003,-0.0391c-1.07241,2.70853 -2.16527,5.40829 -3.28957,8.09448l-0.77517,3.87583c-0.20987,1.16847 -1.23166,2.05512 -2.46053,2.05512c-1.38071,0 -2.5,-1.11929 -2.5,-2.5v-4.10226l0.06145,0c-0.01332,-0.13284 -0.02315,-0.26631 -0.02917,-0.40046c-0.12429,-2.76889 1.55177,-5.33243 2.60206,-7.89741c0.47821,-1.16787 0.97459,-2.33776 1.48802,-3.50701c0.02286,-0.17972 0.06479,-0.35348 0.12372,-0.5192l1.02522,-3.11172c0.28458,-0.89853 0.57492,-1.7954 0.87071,-2.6907c0.16117,-0.68564 0.39734,-1.35579 0.67641,-2.01708c0.66453,-1.95316 1.35401,-3.89902 2.06512,-5.83834c-1.83125,3.54799 -3.54594,7.13897 -5.02458,10.79769l-0.27831,0.20101l0.0989,0.07418l-2.4439,3.25853c-0.45492,0.62044 -1.18914,1.02328 -2.01746,1.02328c-1.38071,0 -2.5,-1.11929 -2.5,-2.5c0,-0.34826 0.07121,-0.67989 0.19986,-0.98112l1.55862,-3.89656c-0.52331,1.08688 -1.39363,2.89447 -2.17571,4.51879c-0.88023,2.07342 -1.76426,4.1451 -2.67645,6.20661c-0.05481,0.13417 -0.11273,0.2659 -0.17489,0.39432c-0.23676,0.53256 -0.4755,1.0644 -0.71665,1.59538l-0.02903,0.02361l0.01436,0.007l-1.07439,2.2033c-0.39601,0.85812 -1.26403,1.45364 -2.27116,1.45364c-1.38071,0 -2.5,-1.11929 -2.5,-2.5c0,-0.29691 0.05176,-0.58173 0.14675,-0.84593l0.802,-2.40599l0.03138,0.01046c0.0071,-0.05314 0.01494,-0.10625 0.02356,-0.15934c0.27547,-1.69733 1.48815,-3.10042 2.23335,-4.6501c0.55594,-1.15611 1.11232,-2.31201 1.66889,-3.46782c1.42605,-3.36242 2.84229,-6.72955 4.35665,-10.06309c5.658,-13.744 11.35247,-27.44078 15.84266,-41.61434c1.51016,-4.76691 2.16287,-9.33107 2.93042,-14.26523c0.06695,-0.43041 0.11426,-0.86564 0.15969,-1.30137c-0.4693,0.47606 -0.93781,0.9291 -1.26958,1.31803c-2.89384,3.39246 -6.62107,8.64584 -10.35121,11.11498l-2.46136,2.46136c-0.45241,0.45241 -1.07741,0.73223 -1.76777,0.73223c-1.38071,0 -2.5,-1.11929 -2.5,-2.5c0,-0.52532 0.16203,-1.0128 0.43883,-1.41519l1.62194,-2.43292l0.07819,0.05213l0.04806,-0.22499c7.82104,-8.2662 14.04639,-17.76141 21.40688,-26.40772c10.42231,-12.24303 21.56581,-23.97108 32.92906,-35.33433c0,0 1.76777,-1.76777 3.53553,0c1.76777,1.76777 0,3.53553 0,3.53553c-4.74948,4.74948 -9.46035,9.56282 -14.09528,14.4515l-0.5801,4.6408l-0.03109,-0.00389c-0.00256,0.08017 -0.00592,0.16036 -0.01013,0.24058c-0.00296,0.05635 -3.11505,9.54558 -3.17924,9.73999c-1.67357,5.06831 -3.48477,10.0275 -5.39766,14.94351c1.20952,-1.95416 2.77783,-3.71038 3.67545,-5.8229c1.01412,-2.38668 1.76656,-4.92265 3.12011,-7.13044l0.86992,-2.43576c0.32948,-0.99563 1.26782,-1.71397 2.37393,-1.71397c1.38071,0 2.5,1.11929 2.5,2.5c0,0.29691 -0.05176,0.58173 -0.14675,0.84593l-0.802,2.40599l-0.05183,-0.01728l-0.0755,0.2114l0.01004,0.09587c-0.03416,0.05304 -0.06794,0.1063 -0.10133,0.15976l-0.65995,1.84787c-0.02111,0.794 -3.31316,8.74559 -3.59438,9.44056c-1.88848,4.66699 -3.77066,9.31581 -5.8169,13.91625c-2.21536,4.98068 -4.48366,9.96109 -6.74108,14.95551c-0.02481,0.24394 -0.05371,0.48832 -0.08697,0.73318c-0.00453,0.03909 -0.00995,0.0779 -0.01626,0.11641c-0.07559,0.52552 -0.17976,1.04263 -0.30934,1.55203l-0.52669,2.63346l-0.04177,-0.00835c-0.00498,0.08249 -0.01112,0.165 -0.01847,0.24753c-0.15517,1.74189 -1.33588,3.23241 -2.00659,4.84746c-1.74577,4.20376 -3.40916,8.43245 -5.06398,12.67135c0.39754,0.1872 0.73776,0.47607 0.98714,0.83308l1.5906,-2.38589c0.44514,-0.68925 1.2201,-1.14551 2.10163,-1.14551c0.19082,0 0.37665,0.02138 0.55521,0.06187c0.45857,-0.53981 1.14236,-0.88232 1.90614,-0.88232c1.38071,0 2.5,1.11929 2.5,2.5v4.10226l-0.02624,0c0.00664,0.06861 0.01256,0.13734 0.01773,0.2062c0.20172,2.68841 -0.66877,5.62858 -1.60963,8.50108l0.37782,0.06354c-0.31248,0.46028 -0.56039,0.87288 -0.77024,1.2468l0.10573,0.12539c0,0 -0.11935,0.23869 -0.35804,0.52111zM31.37676,229.27163c-0.01022,0.02122 -0.02061,0.04281 -0.03118,0.06476l0.01364,0.00546c0.00577,-0.02342 0.01161,-0.04682 0.01754,-0.07021zM61.91269,144.7955c-1.68221,1.91026 -3.34825,3.83294 -4.99609,5.76864c-1.7915,2.10446 -3.51389,4.26115 -5.20809,6.43864c0.99574,0.89466 1.40045,2.62186 1.64613,3.99629c0.88688,-1.67537 1.62318,-3.06577 1.64148,-3.10034c2.31341,-4.36967 4.62611,-8.73074 6.91657,-13.10323zM38.30424,217.11241c2.89217,-5.44839 6.02647,-10.8014 8.91337,-16.14388c0.03949,-0.07308 0.07888,-0.14631 0.11818,-0.21971c-0.53682,-0.05726 -1.02286,-0.28443 -1.40329,-0.6267c-1.14884,2.47632 -2.25853,4.99189 -3.47375,7.45796c-2.79465,5.67125 -5.8358,11.20659 -8.69369,16.84551c0.62165,-0.94283 1.27,-1.87297 1.84529,-2.8277c0.89535,-1.4859 1.79191,-2.98427 2.69389,-4.48548zM58.42416,165.88605c0.74054,-1.72617 1.47317,-3.4537 2.18791,-5.19059l-0.26206,0.39309c-0.84548,1.22925 -2.11328,2.59051 -2.04332,4.26047c0.00777,0.18558 0.05263,0.36335 0.11748,0.53703zM63.79115,152.46073c0.13526,-0.38064 0.26617,-0.77182 0.39378,-1.17198c-0.77481,1.45725 -1.5551,2.91247 -2.34131,4.36598c0.19971,0.24314 0.35443,0.52463 0.45146,0.83175c0.51503,-1.3317 1.01516,-2.67246 1.49607,-4.02575zM48.64273,185.61059c0.94471,-1.2134 1.96965,-2.3793 3.09782,-3.48748c0.89566,-2.3352 1.77758,-4.67672 2.721,-6.98471c-0.21423,-1.32562 -0.41157,-2.64789 -0.55154,-3.95886l-0.68138,1.70346c-0.29545,0.79128 -0.98031,1.3927 -1.82144,1.57115c-0.70398,3.74361 -1.64898,7.4629 -2.76446,11.15645z" fill="#fcff00" fill-rule="nonzero" stroke="none" stroke-width="0.5" stroke-linecap="butt" stroke-linejoin="miter"/><path d="M270.82131,1.15805c1.83742,1.69526 0.14216,3.53267 0.14216,3.53267l-2.46697,2.63737c-2.26085,4.54105 -4.95457,7.39924 -7.97948,11.40997c-0.044,0.05834 -5.24805,7.68647 -5.51512,8.06176l-2.42112,4.22481c-0.42487,0.77416 -1.24771,1.29894 -2.19313,1.29894c-0.7158,0 -1.36135,-0.30083 -1.81709,-0.78296c-0.08727,0.09695 -0.1738,0.19384 -0.25952,0.29068c-0.88492,0.99976 -6.14296,7.10768 -7.25949,7.65126c-0.12055,0.05869 -0.24242,0.11338 -0.36551,0.16443l0.02177,0.04353l-3.23682,1.61841c-0.34741,0.18291 -0.74312,0.28642 -1.16302,0.28642c-1.38071,0 -2.5,-1.11929 -2.5,-2.5c0,-0.52532 0.16203,-1.0128 0.43883,-1.41519l0.06034,-0.09051c-2.51715,2.52376 -5.13724,4.88607 -8.04605,7.04741l0.32831,0.32831l-3.28181,3.28181c-0.45241,0.45241 -1.07741,0.73223 -1.76777,0.73223c-1.38071,0 -2.5,-1.11929 -2.5,-2.5c0,-0.33163 0.06457,-0.64818 0.18183,-0.93776l1.25069,-3.3087l0.04125,0.01559l0.00698,-0.13394c1.04713,-2.09759 2.1126,-4.17667 3.2027,-6.23761l-2.73608,3.19209c-0.45858,0.54156 -1.1435,0.88536 -1.90872,0.88536c-1.38071,0 -2.5,-1.11929 -2.5,-2.5c0,-0.41989 0.10352,-0.81561 0.28642,-1.16302l1.61841,-3.23682l0.0688,0.0344l0.02787,-0.20979c0.26085,-0.36238 0.5164,-0.7324 0.7675,-1.10901c-7.23442,8.10061 -14.4492,16.14195 -21.27912,24.57882l-1.93832,3.87664c-0.40086,0.84561 -1.26228,1.43041 -2.26029,1.43041c-1.38071,0 -2.5,-1.11929 -2.5,-2.5c0,-0.41989 0.10352,-0.81561 0.28642,-1.16302l2.21358,-4.42715l0.02463,0.01232l0.00018,-0.06063c0.04286,-0.07718 0.08575,-0.15434 0.12867,-0.23149c0.28098,-0.60563 0.62861,-1.21792 1.02673,-1.83239c5.76561,-10.21894 12.03971,-20.18612 18.20827,-30.20285c-0.54355,0.43098 -1.08838,0.8604 -1.63417,1.28862c-0.35802,0.30441 -0.70718,0.61304 -1.04536,0.92708c-1.80761,1.67858 -3.57979,3.40612 -5.31952,5.17482c-1.5422,1.94665 -3.14504,3.84903 -4.91764,5.65148l-0.0093,0.00395l0.00269,0.00269l-2.46136,2.46136c-0.14608,0.14608 -0.31016,0.27417 -0.48862,0.38065c-7.61725,8.68755 -14.63972,17.99701 -21.36472,27.15535l-1.60628,2.40804c-0.4452,0.68892 -1.21997,1.14492 -2.10125,1.14492c-1.38071,0 -2.5,-1.11929 -2.5,-2.5c0,-0.46716 0.12813,-0.90439 0.35117,-1.27847l2.45891,-4.3031l0.01906,0.01089c0.01451,-0.03852 0.02921,-0.07699 0.04409,-0.1154c0.61705,-1.59195 1.97325,-2.78685 2.96048,-4.17985c2.85691,-4.03117 5.71731,-8.05986 8.5743,-12.09098c2.03069,-2.86523 4.0835,-5.71619 6.14653,-8.56053c-0.46961,-1.47539 0.85629,-2.58031 0.85629,-2.58031c0.8402,-0.69983 1.68573,-1.39311 2.53545,-2.08125c5.33938,-7.32155 10.70352,-14.62685 15.88846,-22.04703c5.39214,-7.71668 10.36214,-17.26412 19.17967,-21.40169l0.14082,-0.00355l-0.01417,-0.0425l1.35438,-0.45146c0.49051,-0.63398 0.98573,-1.26425 1.48628,-1.89035l0.1162,-0.05939l-0.03202,-0.03125l1.81787,-1.86276c0.45413,-0.46624 1.08876,-0.75579 1.79102,-0.75579c1.38071,0 2.5,1.11929 2.5,2.5c0,0.1348 -0.01067,0.26711 -0.03121,0.39613l-0.70102,4.90717l-0.04378,-0.00625c-0.01583,0.14649 -0.03506,0.29283 -0.05798,0.43902c-0.28102,1.79242 -1.7046,3.20335 -2.56524,4.80055c-2.18759,4.05979 -4.44991,8.05984 -6.76181,12.03964c0.20105,0.36013 0.31562,0.77511 0.31562,1.21685c0,0.82831 -0.40283,1.56254 -1.02328,2.01746l-2.12328,1.59246c-4.14493,7.00401 -8.46165,13.92485 -12.74405,20.86352c3.44348,-3.72616 6.84613,-7.49121 10.01603,-11.41206c2.84523,-3.51926 4.93246,-6.64433 8.14766,-9.853l2.05929,-3.58994c0.42502,-0.77363 1.24758,-1.29798 2.1926,-1.29798c1.38071,0 2.5,1.11929 2.5,2.5c0,0.15625 -0.01433,0.30915 -0.04176,0.45746l-0.28774,1.72642c0.84674,-1.2172 1.65885,-2.45533 2.4226,-3.72241l0.28785,-0.14413l-0.08511,-0.08511l2.46136,-2.46136c0,0 0,0 0,0c0.45241,-0.45241 1.07741,-0.73223 1.76777,-0.73223c1.38071,0 2.5,1.11929 2.5,2.5c0,0.41989 -0.10352,0.81561 -0.28642,1.16302l-2.21358,4.42715c-1.32066,4.45975 -5.10058,8.40484 -7.53403,12.26745c-2.37152,3.7643 -4.56565,7.59602 -6.65966,11.48732c1.15209,-1.15135 2.25965,-2.34885 3.34021,-3.56572c7.21576,-8.12598 15.54182,-15.99224 21.01335,-25.41731l0.06605,-0.0453l-0.02582,-0.01717l1.6445,-2.47213c0.4449,-0.69051 1.22059,-1.14776 2.10308,-1.14776c1.38071,0 2.5,1.11929 2.5,2.5c0,0.34826 -0.07121,0.67989 -0.19986,0.98112l-1.16341,2.90852l0.94808,-1.2641c0.45492,-0.62044 1.18914,-1.02328 2.01746,-1.02328c0.38279,0 0.74549,0.08603 1.06982,0.23982c0.55594,-0.90661 1.08263,-1.84045 1.57052,-2.8122l2.90632,-3.18649c0,0 1.69526,-1.83742 3.53267,-0.14216zM252.34241,19.55064c-0.33845,0.50767 -0.67689,1.01534 -1.01534,1.52301c0.34233,-0.46385 0.66089,-0.93396 0.94814,-1.4111c0.02244,-0.03728 0.04484,-0.07458 0.0672,-0.11191z" fill="#00ff5f" fill-rule="nonzero" stroke="none" stroke-width="0.5" stroke-linecap="butt" stroke-linejoin="miter"/><path d="M92.602,301.76687c-0.52266,-0.52266 -0.73626,-1.04533 -0.77786,-1.5223c-4.73275,6.61726 -9.03109,13.56445 -13.82342,20.15394c-1.61572,2.22162 -2.79229,4.85782 -4.88541,6.63687l-2.98254,3.97672c-0.45492,0.62044 -1.18914,1.02328 -2.01746,1.02328c-1.38071,0 -2.5,-1.11929 -2.5,-2.5c0,-0.52461 0.16159,-1.01148 0.43771,-1.41355l2.27838,-3.42385c0.41492,-0.62604 0.82814,-1.25392 1.23976,-1.88347c0.25592,-0.50816 0.57861,-0.98505 0.93962,-1.44405c0.02959,-0.04569 0.05917,-0.09138 0.08874,-0.13709l-2.23437,2.55356c-0.45841,0.52944 -1.13546,0.86438 -1.89075,0.86438c-1.38071,0 -2.5,-1.11929 -2.5,-2.5v-3.28181h0.06556l-0.05704,-0.2062c0.76388,-4.62021 1.84032,-8.98602 2.88167,-13.54512c0.04408,-0.193 0.08628,-0.38525 0.12693,-0.57674c-0.00791,0.01461 -0.01213,0.02229 -0.01244,0.02263c-0.02803,0.03051 -0.05631,0.06073 -0.08482,0.09069l0.01937,0.01291l-1.6194,2.42909c-0.44514,0.68925 -1.2201,1.14551 -2.10163,1.14551c-1.38071,0 -2.5,-1.11929 -2.5,-2.5c0,-0.29691 0.05176,-0.58173 0.14675,-0.84593l0.802,-2.40599l0.01845,0.00615l-0.00385,-0.04867c0.30334,-0.80957 0.61559,-1.61593 0.93545,-2.41956c-0.07224,0.00628 -0.14537,0.00948 -0.21924,0.00948c-1.32752,0 -2.41337,-1.03471 -2.49507,-2.34164c-0.60606,1.10193 -1.07898,1.94745 -1.15053,2.0223c-0.0396,0.04142 -0.07953,0.08246 -0.11979,0.12312l0.02222,0.01666l-2.4439,3.25853c-0.45492,0.62044 -1.18914,1.02328 -2.01746,1.02328c-1.38071,0 -2.5,-1.11929 -2.5,-2.5c0,-0.31581 0.05856,-0.61795 0.16541,-0.89614l1.07893,-3.01846l0.03767,0.01347l-0.00062,-0.1107c2.7791,-6.11776 5.083,-12.36199 7.07262,-18.734c-1.1271,1.15799 -2.64719,2.55328 -4.13883,3.14272c-1.27126,2.11918 -2.53501,4.24353 -3.79942,6.36851c-0.58546,0.98393 -1.19583,1.95361 -1.77906,2.9388c-0.67628,1.6879 -1.31762,3.39227 -1.91026,5.12148l-0.22769,0.18472l0.09644,0.05904l-1.78513,2.916c-0.43466,0.73773 -1.23726,1.23275 -2.15547,1.23275c-1.28986,0 -2.35156,-0.97683 -2.4857,-2.23107l-1.86827,3.36288c-0.41981,0.7909 -1.25182,1.32954 -2.20964,1.32954c-1.38071,0 -2.5,-1.11929 -2.5,-2.5c0,-0.34826 0.07121,-0.67989 0.19986,-0.98112l1.61985,-4.04962l0.03172,0.01269l0.00595,-0.10182c4.08077,-8.29233 7.59051,-16.83743 11.25561,-25.31825c-0.24185,0.07794 -0.4998,0.12004 -0.76757,0.12004c-0.70713,0 -1.3457,-0.29359 -1.80044,-0.76552c-2.68348,3.96091 -5.20762,8.01713 -7.39176,12.34571l-0.30307,0.17204l0.0996,0.08887l-1.85813,2.08245c-0.45805,0.51799 -1.1276,0.84459 -1.87344,0.84459c-1.38071,0 -2.5,-1.11929 -2.5,-2.5c0,-0.22872 0.03071,-0.45026 0.08824,-0.66073l1.19908,-4.79632c0.16534,-1.67606 0.60139,-3.21761 1.19173,-4.68734c0.0226,-0.18965 0.06643,-0.37279 0.12905,-0.54697l0.802,-2.40599l0.02949,0.00983l-0.00524,-0.07915c0.8488,-2.12287 1.7193,-4.27605 2.6204,-6.44011c-2.46931,3.56052 -4.99562,7.06936 -7.65973,10.43427l-1.83924,3.67849c-0.40086,0.84561 -1.26228,1.43041 -2.26029,1.43041c-1.38071,0 -2.5,-1.11929 -2.5,-2.5c0,-0.32402 0.06164,-0.63364 0.17384,-0.91778l0.95882,-2.60502l0.18323,0.06744l-0.01442,-0.43244c0.32197,-0.40703 0.64211,-0.81586 0.96053,-1.22635l0.23801,-0.47602l0.05691,0.02845c0.01134,-0.07249 0.02716,-0.14491 0.04792,-0.21725c0.47953,-1.67115 2.06044,-2.80095 3.0925,-4.20007c1.53197,-2.07682 3.13372,-4.10363 4.60218,-6.22584c1.57056,-2.26978 3.12064,-4.5371 4.67265,-6.79411c2.11287,-3.10243 4.22565,-6.19917 6.38353,-9.24335c2.58098,-3.64106 4.84118,-7.76152 7.53836,-11.35c0.17571,-0.43882 0.47222,-0.81623 0.8484,-1.09109c0.03389,-0.04205 0.06785,-0.084 0.10189,-0.12586c1.68522,-2.07214 3.70776,-3.95573 4.87857,-6.35634c0,0 1.11803,-2.23607 3.3541,-1.11803c2.23607,1.11803 1.11803,3.3541 1.11803,3.3541c-0.61331,1.20268 -1.38416,2.30996 -2.21995,3.37569l0.82346,2.8821c1.63738,-1.23369 3.2653,-2.04878 4.25517,-1.46586c3.04388,1.79249 1.98392,9.6231 1.80713,12.40376c-0.29423,4.62792 -1.32034,9.06882 -2.75476,13.39613c1.01532,-1.17049 2.03286,-2.32742 3.04933,-3.46928c2.42385,-2.72285 4.30174,-5.23852 7.53214,-7.12258c1.59373,-0.9295 3.61764,-3.14354 5.12777,-2.08361c1.68159,1.18028 2.04598,3.53418 2.22084,5.73772c0.13252,-0.10708 0.26544,-0.21361 0.39877,-0.31956l0.18805,-0.31821l-0.13061,-0.08707l1.6194,-2.42909c0.44514,-0.68925 1.2201,-1.14551 2.10163,-1.14551c1.38071,0 2.5,1.11929 2.5,2.5c0,0.47953 -0.13501,0.92753 -0.3691,1.30806l-2.04984,3.46865c-0.99959,2.32775 -2.13007,4.59376 -3.327,6.82857c-0.0119,0.25409 -0.06174,0.49826 -0.14397,0.72698l-0.802,2.40599l-0.41764,-0.13921c-0.07807,0.64272 -0.17571,1.27569 -0.29108,1.90154c0.25071,-0.08443 0.51919,-0.13019 0.79837,-0.13019c1.38071,0 2.5,1.11929 2.5,2.5c0,0.1348 -0.01067,0.26711 -0.03121,0.39613l-0.70102,4.90717l-0.03912,-0.00559c-0.00202,0.08417 -0.005,0.16838 -0.00898,0.25264c-0.01677,0.35529 -0.07498,0.70245 -0.16202,1.04394c1.6151,-1.97416 3.22671,-3.95125 4.83542,-5.93112c1.60372,-1.97372 2.83108,-4.34979 4.86386,-5.87795l3.24338,-3.78394c0.45858,-0.54156 1.1435,-0.88536 1.90872,-0.88536c1.38071,0 2.5,1.11929 2.5,2.5c0,0.44348 -0.11547,0.85998 -0.31799,1.22109l-1.8416,3.44202l-0.00925,-0.00495l-0.00502,0.03125c-1.73879,3.06986 -3.48613,6.13661 -5.20189,9.22006c1.35905,0.02503 2.45305,1.13454 2.45305,2.49957c0,0.29691 -0.05176,0.58173 -0.14675,0.84593l-0.802,2.40599l-0.04005,-0.01335c-0.01459,0.08123 -0.03102,0.1623 -0.0494,0.2432c-0.02936,0.12923 -0.44635,0.88049 -1.03236,1.89669c1.51989,-1.26576 3.12654,-2.75958 4.62741,-1.94587c2.26893,1.23012 2.08537,4.83347 2.24806,7.40927c0.25102,3.97436 -2.88984,8.41609 -4.11276,12.1009l-1.42439,1.79765c0,0 -1.76777,1.76777 -3.53553,0zM76.563,297.6647c1.43828,-2.46685 3.25146,-5.53822 3.40467,-5.82872c1.86357,-3.53354 3.68368,-7.07599 5.50646,-10.61403c-1.33779,1.62668 -2.67886,3.25076 -4.02404,4.87177l-0.10064,0.06462l0.01994,0.01994l-1.92489,1.92489c-0.52444,1.50109 -1.04377,3.00417 -1.55522,4.51053c-0.5592,1.647 -0.92022,3.35649 -1.32628,5.051zM66.64511,274.12235c0.41326,-0.8126 0.8396,-1.61827 1.28621,-2.41315l0.05114,-0.05063l-0.01418,-0.00906l0.19255,-0.30135c-0.33076,0.29186 -0.6615,0.58381 -0.99209,0.87599c-0.04552,0.16572 -0.07752,0.28224 -0.09316,0.33958c-0.1419,0.52031 -0.28537,1.03985 -0.43048,1.55862zM69.5119,263.48091c2.49713,-2.42329 4.93952,-4.9275 7.45107,-7.33799c0.51554,-1.38234 0.64544,-2.90023 0.974,-4.34382c-0.97833,0.89129 -2.21327,1.5112 -3.17765,2.42683c-1.95891,1.85989 -3.76423,3.91774 -5.49002,6.05003l0.39726,1.19178l-0.05773,0.01924c0.08218,0.22616 0.14536,0.45958 0.18505,0.70196c0.0116,0.07085 -0.09916,0.56042 -0.28199,1.29197zM56.37304,238.47834c0.13775,-0.45733 0.27455,-0.91531 0.4104,-1.37399c-0.24637,0.3011 -0.4914,0.60324 -0.73515,0.90637c-0.21861,0.53583 -0.43804,1.0724 -0.65834,1.60955c0.318,-0.38105 0.64073,-0.75639 0.96849,-1.1255c0.00475,-0.00535 0.00962,-0.01083 0.01459,-0.01642zM59.36162,259.06673c1.23202,-3.17596 2.25467,-6.40163 2.8831,-9.67744l-1.08711,2.40264c-0.68618,2.4146 -1.27493,4.83845 -1.79599,7.27481zM63.01885,238.98333c-0.64555,0.73313 -1.42668,1.34926 -2.14276,2.02422c-0.32659,1.28054 -0.64339,2.50322 -0.84831,3.2625c0.22314,-0.06531 0.45921,-0.10033 0.70346,-0.10033c0.76108,0 1.44273,0.34009 1.90127,0.8766c0.01879,-2.04072 -0.04934,-4.10634 0.38635,-6.06299zM94.87291,292.78996c0.64552,-1.70993 1.27466,-3.42835 1.81067,-5.21956c0.25095,-0.83863 1.36721,-1.79611 0.83384,-2.49022c-0.50578,-0.65821 -0.43793,1.66618 -0.99226,2.28406c-0.17511,0.19519 -0.35685,0.38385 -0.54372,0.56746c0.04438,0.18646 0.06788,0.38103 0.06788,0.58108c0,0.46716 -0.12813,0.90439 -0.35117,1.27847l-1.14847,2.00983c0.1963,-0.09742 0.39132,-0.19684 0.58462,-0.29894zM72.97048,289.03121c0.20843,0.16899 0.38912,0.37084 0.53421,0.59767c0.14075,-0.39912 0.2831,-0.79785 0.42659,-1.19618c-0.07244,-0.23396 -0.11145,-0.48261 -0.11145,-0.74038l0,-0.46862c-0.28253,0.60269 -0.56591,1.2051 -0.84934,1.80751zM71.68726,306.25591c-0.61756,2.67655 -1.24703,5.34705 -1.80984,8.03431c0.58039,-0.7644 1.2226,-1.51042 1.89529,-2.30403c0.6984,-1.2121 1.61455,-2.78048 2.40567,-4.1327c-0.21278,-0.35226 -0.3411,-0.76126 -0.35691,-1.19895c-0.88446,0.00059 -1.58538,-0.14257 -2.13422,-0.39863z" fill="#00ff5f" fill-rule="nonzero" stroke="none" stroke-width="0.5" stroke-linecap="butt" stroke-linejoin="miter"/><path d="M394.75872,40.84716c-7.79776,13.28915 -15.3255,26.8188 -23.84972,39.60513c-2.7735,4.16025 -5.5466,8.32077 -8.3205,12.48075c-0.08525,0.12785 -3.95184,6.09277 -4.77634,6.83712l-2.98254,3.97672c-0.45492,0.62044 -1.18914,1.02328 -2.01746,1.02328c-1.38071,0 -2.5,-1.11929 -2.5,-2.5c0,-0.29691 0.05176,-0.58173 0.14675,-0.84593l0.802,-2.40599l0.02949,0.00983l-0.00524,-0.07915c2.0305,-5.07153 4.39821,-10.04342 7.00121,-14.90553c-0.01079,0.01612 -0.02158,0.03224 -0.03237,0.04836c-0.62002,1.13367 -1.19409,2.30456 -2.10511,3.20268c-0.01567,0.01545 -0.03138,0.03086 -0.04711,0.04623l0.01002,0.00716l-2.88682,4.04155c-0.37011,0.53204 -0.94167,0.91343 -1.60421,1.03372c-2.97899,3.82657 -5.82313,7.77118 -8.7341,11.64916c-1.00827,1.3432 -1.7843,2.89742 -3.02492,4.02953c-0.00962,0.00878 -0.01924,0.01754 -0.02888,0.02629l0.00502,0.00401l-3.10905,3.88631c-0.45772,0.5823 -1.16848,0.9563 -1.9666,0.9563c-1.38071,0 -2.5,-1.11929 -2.5,-2.5c0,-0.34826 0.07121,-0.67989 0.19986,-0.98112l1.61985,-4.04962l0.04898,0.01959l0.0144,-0.16456c3.59596,-6.49395 6.70125,-13.29319 10.37498,-19.73164c0.35869,-0.62863 0.72225,-1.25427 1.09022,-1.87719l-1.41732,1.96578c-0.45229,0.64365 -1.20047,1.06429 -2.0469,1.06429c-1.38071,0 -2.5,-1.11929 -2.5,-2.5c0,-0.48518 0.13821,-0.93808 0.37741,-1.32147l2.39502,-3.9917c0.1485,-0.4528 0.31715,-0.89708 0.50249,-1.33422c-0.24397,0.07946 -0.50443,0.12242 -0.77491,0.12242c-1.38071,0 -2.5,-1.11929 -2.5,-2.5c0,-0.55213 0.17898,-1.06245 0.4821,-1.47611l2.45516,-3.43975l0.02726,0.01946l0.02674,-0.09228c0.40236,-0.48495 0.80365,-0.96844 1.20503,-1.44965c0.60946,-1.03753 1.49798,-1.94277 2.16242,-2.95411c1.85387,-2.82175 3.78507,-5.59404 5.78618,-8.31335c4.42236,-6.00952 8.60713,-12.12812 12.91384,-18.17081c-4.41097,5.07305 -9.01216,9.99244 -13.37097,15.11346c-3.09224,3.63297 -5.87729,8.2153 -9.30721,11.50154l-2.70164,4.05246c-0.44514,0.68925 -1.2201,1.14551 -2.10163,1.14551c-1.38071,0 -2.5,-1.11929 -2.5,-2.5c0,-0.41989 0.10352,-0.81561 0.28642,-1.16302l1.61841,-3.23682l0.03376,0.01688l0.01079,-0.10187c0.0565,-0.09423 0.11302,-0.18842 0.16958,-0.28258c-1.64715,2.09926 -3.35159,4.14981 -5.18376,5.76253l-3.15295,3.8536c-0.45824,0.56901 -1.16067,0.93309 -1.94813,0.93309c-1.38071,0 -2.5,-1.11929 -2.5,-2.5c0,-0.29691 0.05176,-0.58173 0.14675,-0.84593l0.802,-2.40599l0.07158,0.02386l-0.00957,-0.19c3.71328,-7.45682 7.95666,-14.57145 12.29093,-21.64544c-1.29357,1.76198 -2.58448,3.51089 -3.8798,5.23286c-4.75828,6.32559 -8.87914,14.39187 -14.7898,19.71974l-2.4214,3.22854c-0.45492,0.62044 -1.18914,1.02328 -2.01746,1.02328c-1.38071,0 -2.5,-1.11929 -2.5,-2.5c0,-0.29691 0.05176,-0.58173 0.14675,-0.84593l0.802,-2.40599l0.11528,0.03843l-0.01486,-0.2925c7.49722,-12.57938 15.22379,-25.0354 22.98131,-37.46213c-2.08501,2.0857 -5.52441,5.52555 -5.56131,5.56182c-1.34729,1.32457 -2.32314,3.22722 -4.07155,3.94327c-1.96479,0.80466 -4.75451,1.71746 -6.361,0.32928c-1.36537,-1.17983 0.00064,-3.65722 0.50448,-5.38996c0.33382,-1.14802 4.29257,-7.91832 4.90809,-9.00794c1.07431,-1.90179 2.19602,-3.76297 3.35039,-5.59721c-1.51881,1.6247 -3.06439,3.22669 -4.64029,4.80297c-4.27059,4.27162 -8.46752,8.21739 -13.16477,12.00319c-1.32705,1.06955 -2.45563,2.44916 -3.98196,3.20767c-0.0341,0.01695 -0.06826,0.03375 -0.10248,0.05041l0.00969,0.01453l-4.13181,2.75454c-0.40239,0.27681 -0.88987,0.43883 -1.41519,0.43883c-1.38071,0 -2.5,-1.11929 -2.5,-2.5c0,-0.57191 0.19204,-1.09897 0.51515,-1.5202l2.3881,-3.18413c3.82632,-6.38254 8.0584,-12.51216 12.14027,-18.73433c1.18924,-1.81281 2.2753,-3.6418 3.48618,-5.36769c-1.99654,1.4291 -3.89651,2.94289 -5.93838,4.48108c-1.41187,1.0636 -2.58846,2.55434 -4.2396,3.18551c-0.09458,0.03615 -0.18955,0.07091 -0.28488,0.10436l0.01368,0.03191l-4.54493,1.94783c-0.31554,0.1438 -0.66621,0.22391 -1.0356,0.22391c-1.38071,0 -2.5,-1.11929 -2.5,-2.5c0,-0.52532 0.16203,-1.0128 0.43883,-1.41519l1.54874,-2.3231c1.02245,-2.14426 1.89635,-4.44623 2.92679,-6.63772c-0.03128,0.02314 -0.06258,0.04621 -0.09391,0.06923c-1.31474,0.96605 -2.38018,2.57558 -3.99124,2.83306c-2.1029,0.33609 -4.93894,0.46501 -6.27656,-1.19206c-1.0273,-1.27264 1.09109,-3.08516 1.5588,-4.65238c0.08231,-0.27579 0.17083,-0.55119 0.26599,-0.82507c-1.54946,1.53624 -3.19202,3.11928 -3.56384,3.29189c-0.10977,0.05096 -0.22029,0.09975 -0.3315,0.14651l0.01948,0.03896l-4.42715,2.21358c-0.34741,0.18291 -0.74312,0.28642 -1.16302,0.28642c-1.38071,0 -2.5,-1.11929 -2.5,-2.5c0,-0.57191 0.19204,-1.09897 0.51515,-1.5202l2.34619,-3.12825c0.37805,-0.74118 0.79369,-1.46756 1.24792,-2.16881c-2.48336,1.15399 -4.35003,2.63306 -6.94807,4.07396c-1.35322,0.75051 -2.88907,1.11325 -4.30293,1.74209c-3.49332,1.55373 -6.4437,3.78099 -10.07899,5.01382c0,0 -2.37171,0.79057 -3.16228,-1.58114c-0.79057,-2.37171 1.58114,-3.16228 1.58114,-3.16228c2.18308,-0.71213 4.1436,-1.98686 6.15116,-3.10161c2.34759,-1.30356 5.01598,-1.96381 7.36228,-3.2697c3.18596,-1.77323 5.52029,-3.78638 9.07274,-4.96323l2.22321,-1.48214c0.40239,-0.27681 0.88987,-0.43883 1.41519,-0.43883c1.38071,0 2.5,1.11929 2.5,2.5c0,0.15625 -0.01433,0.30915 -0.04176,0.45746l-0.49742,2.98453c0.7167,-0.6756 1.45704,-1.35913 2.19839,-2.09437l0.24083,-0.08051l-0.04362,-0.06543l2.43292,-1.62194c0.40239,-0.27681 0.88987,-0.43883 1.41519,-0.43883c1.38071,0 2.5,1.11929 2.5,2.5c0,0.15625 -0.01433,0.30915 -0.04176,0.45746l-0.81271,4.87625l-0.01233,-0.00205c-0.00193,0.03338 -0.00394,0.06675 -0.00604,0.10013c-0.01375,0.2185 -0.03018,0.4398 -0.05143,0.66192c1.71499,-1.36345 3.47377,-2.51754 4.86101,-4.57967l0.48087,-0.16257l-0.09986,-0.14978l2.43292,-1.62194c0.40239,-0.27681 0.88987,-0.43883 1.41519,-0.43883c1.38071,0 2.5,1.11929 2.5,2.5c0,0.22872 -0.03071,0.45026 -0.08824,0.66073l-1.19908,4.79632l-0.02146,-0.00537c-0.01181,0.06807 -0.02415,0.13608 -0.03704,0.20402c-0.3511,1.84989 -1.19097,3.7791 -2.16721,5.6818c3.27088,-2.71869 7.17609,-5.03615 10.29708,-6.86086l2.42994,-1.61644c0.40201,-0.27599 0.88877,-0.4375 1.41325,-0.4375c1.38071,0 2.5,1.11929 2.5,2.5c0,0.22872 -0.03071,0.45026 -0.08824,0.66073l-1.19908,4.79632l-0.037,-0.00925c-0.02983,0.13573 -0.06253,0.27101 -0.09834,0.40582c-0.03737,0.14068 -5.46804,8.39921 -5.68489,8.72976c-2.12288,3.23599 -4.28432,6.44771 -6.40953,9.6822c1.83209,-1.55626 3.58622,-3.13945 5.40079,-4.95532c10.87649,-10.88434 20.64395,-22.45552 29.87077,-34.75794l2.4439,-3.25853c0.45492,-0.62044 1.18914,-1.02328 2.01746,-1.02328c1.38071,0 2.5,1.11929 2.5,2.5c0,0.34826 -0.07121,0.67989 -0.19986,0.98112l-1.61985,4.04962l-0.02966,-0.01186c-0.01666,0.06488 -0.03395,0.12965 -0.05192,0.19429c-0.87926,3.16408 -3.27553,5.69653 -5.06314,8.45133c-4.15215,6.39869 -9.15578,12.31146 -13.1049,18.83524c-2.01837,3.33426 -3.92249,6.85664 -5.79981,10.3c1.97213,-1.96071 3.99461,-3.87205 5.90277,-5.89475c3.40555,-3.60998 6.5181,-7.33022 9.39972,-11.36358c1.11623,-1.23616 2.23246,-2.47232 3.34869,-3.70848l2.69671,-3.61361c0.45462,-0.62339 1.19063,-1.02847 2.02125,-1.02847c1.38071,0 2.5,1.11929 2.5,2.5c0,0.22872 -0.03071,0.45026 -0.08824,0.66073l-0.80685,3.22742l-0.05097,-0.01274c-0.01801,0.12129 -0.03946,0.24234 -0.06468,0.36311c-0.36577,1.75156 -1.82202,3.08014 -2.73845,4.617c-2.49553,4.18501 -5.0916,8.30411 -7.67396,12.4358c-1.16462,1.86335 -2.32784,3.72781 -3.4895,5.5934c4.98333,-6.52736 9.52507,-13.40028 15.25657,-19.29433l1.63071,-2.40062c0.44707,-0.67841 1.21575,-1.12614 2.08899,-1.12614c1.38071,0 2.5,1.11929 2.5,2.5c0,0.41989 -0.10352,0.81561 -0.28642,1.16302l-2.21358,4.42715l-0.0131,-0.00655c-0.00826,0.0266 -0.0166,0.05318 -0.02502,0.07974c-0.51188,1.61499 -1.71098,2.92462 -2.56676,4.38676c-2.53371,4.32897 -5.06624,8.65295 -7.67464,12.93744c-2.47737,4.06926 -4.98602,8.0998 -7.44557,12.15376c0.2606,-0.30116 0.52094,-0.60249 0.78095,-0.90405c10.76323,-12.4831 19.77909,-26.27588 28.95846,-39.9245l0.23097,-0.11741l-0.06538,-0.06538l2.46136,-2.46136c0.45241,-0.45241 1.07741,-0.73223 1.76777,-0.73223c1.38071,0 2.5,1.11929 2.5,2.5c0,0.36939 -0.08011,0.72006 -0.22391,1.0356l-1.94783,4.54493l-0.03112,-0.01334c-0.02465,0.07817 -0.05014,0.15614 -0.07651,0.2339c-0.56149,1.65576 -1.96994,2.88906 -2.95734,4.33193c-2.82375,4.12629 -5.65722,8.24598 -8.48581,12.36895c-0.92447,1.34751 -1.8446,2.69401 -2.7602,4.0405c1.02845,-1.1739 2.04787,-2.35505 3.0528,-3.54792c5.12389,-6.08211 9.87114,-12.34601 15.51666,-17.97256l1.51614,-2.27421c0.44514,-0.68925 1.2201,-1.14551 2.10163,-1.14551c1.38071,0 2.5,1.11929 2.5,2.5c0,0.22872 -0.03071,0.45026 -0.08824,0.66073l-0.80685,3.22742l-0.05564,-0.01391c-0.01882,0.1287 -0.04163,0.25712 -0.06881,0.38524c-0.13164,0.62052 -2.33344,3.78086 -3.57574,5.73594c0.12693,0.17059 0.23263,0.35791 0.31317,0.55806c0.4535,-0.4609 1.08443,-0.74669 1.78211,-0.74669c0.63777,0 1.21976,0.23882 1.66142,0.6319l1.47605,-1.40258c0.44868,-0.42807 1.05638,-0.69092 1.72547,-0.69092c1.38071,0 2.5,1.11929 2.5,2.5c0,0.29691 -0.05176,0.58173 -0.14675,0.84593l-1.56269,4.68806l-0.04348,-0.01449l-0.01303,0.16725c-2.50487,5.17396 -4.66458,10.53922 -7.13392,15.7255l1.07618,-1.61427c0.44514,-0.68925 1.2201,-1.14551 2.10163,-1.14551c0.80252,0 1.51673,0.37814 1.97416,0.96596c0.8633,-1.31775 1.73303,-2.63136 2.62251,-3.93138c1.59227,-2.32717 2.5958,-5.22744 4.53364,-7.2191c0.35376,-0.59394 0.70837,-1.18717 1.06394,-1.77958l0.05403,-0.03546l-0.02163,-0.01442l1.6194,-2.42909c0.44514,-0.68925 1.2201,-1.14551 2.10163,-1.14551c1.38071,0 2.5,1.11929 2.5,2.5c0,0.41989 -0.10352,0.81561 -0.28642,1.16302l-1.61841,3.23682l-0.02868,-0.01434c-0.01698,0.05484 -0.03454,0.10955 -0.05271,0.16413c-0.0053,0.01592 -2.04592,3.00044 -3.69207,5.40669zM367.59835,60.11192c2.21153,-3.53385 4.35147,-7.11164 6.30496,-10.77585c-1.77012,2.926 -3.59031,5.80511 -5.44913,8.66235c-0.20014,0.49959 -0.40037,0.99914 -0.60069,1.49865c-0.08254,0.20582 -0.16799,0.41063 -0.25514,0.61485zM360.18842,71.67831c-0.04656,-0.3861 -0.06949,-0.80248 -0.07328,-1.23778c-3.88149,5.71449 -7.77591,11.5256 -11.18637,17.48972c1.11115,-1.37577 2.2285,-2.74602 3.33102,-4.12922c0.46708,-1.0229 1.26773,-1.89787 1.9547,-2.82323c0.82651,-1.29645 1.6472,-2.59834 2.5224,-3.89408c1.10187,-1.72572 2.20382,-3.45138 3.30568,-5.17711c0.04859,-0.0761 0.09721,-0.1522 0.14585,-0.22829zM363.21798,52.01632c-0.33783,-0.16216 -0.63358,-0.398 -0.86643,-0.68669c-1.31699,1.87265 -2.63949,3.74367 -3.97833,5.60749c0.14181,0.31373 0.22075,0.66196 0.22075,1.02863c0,0.29691 -0.05176,0.58173 -0.14675,0.84593l-0.54345,1.63036c1.78703,-2.80928 3.53846,-5.62593 5.31422,-8.42572z" fill="#00cfff" fill-rule="nonzero" stroke="none" stroke-width="0.5" stroke-linecap="butt" stroke-linejoin="miter"/><path d="M186.20709,340.27532c-0.02786,0.03022 -0.05613,0.06014 -0.08482,0.08972c-0.02692,0.03953 -0.05277,0.0776 -0.07744,0.11412l-0.07494,0.03331c-0.76845,0.68573 -1.89562,0.8582 -2.85589,1.26947l-0.13542,0.06019l-1.03499,-2.58486c-0.07923,0.09479 -0.15857,0.18948 -0.23801,0.28409c-0.15923,-0.38479 -0.24478,-0.77882 -0.18424,-1.19118c0.25456,-1.7339 1.75644,-3.03312 2.63759,-4.54797c1.06782,-1.83576 2.11344,-3.68493 3.13071,-5.54941c0.06122,0.12245 0.12351,0.24465 0.18652,0.36668c0.25495,-0.49103 0.47426,-0.85853 0.6343,-1.03514c0.76297,-0.84195 2.06526,-0.94798 3.09789,-1.42197l1.75034,0.88198c-0.00802,0.44373 -0.02975,0.88617 -0.07144,1.32671c-1.10191,2.08998 -2.23559,4.16369 -3.40688,6.2156c-0.28459,1.06489 -1.26506,2.66721 -2.15402,4.00799c-0.31391,0.6059 -0.66242,1.18512 -1.11928,1.68068c-0.00744,-0.00054 -0.0149,-0.00113 -0.02238,-0.00174c-0.0214,0.03129 -0.04222,0.06179 -0.06244,0.09147c-0.01507,0.01554 -0.03025,0.03099 -0.04555,0.04635c-0.03477,0.0349 -0.0704,0.06857 -0.10684,0.10109l-2.85589,1.26947c-0.04553,0.0195 -0.09069,0.03954 -0.13542,0.06019c-0.32523,-0.77936 -0.95037,-1.52109 -1.273,-2.30078c-1.30871,1.55853 -2.64603,3.09156 -4.02929,4.57286c-1.78312,1.90948 -3.40021,4.12734 -5.68349,5.39708c-2.25553,1.25431 -4.67311,2.192 -7.00966,3.288l0.84705,-5.70992c2.64811,-3.83837 4.9834,-7.84623 7.22324,-11.9161c-1.77418,1.08763 -3.74269,1.88102 -5.56863,2.89027l1.29128,-6.33268c1.51527,-3.54422 2.34622,-5.81138 4.35522,-9.15462c0.46759,-0.77814 1.00236,-1.51258 1.54117,-2.24443c-0.43833,0.30661 -0.87255,0.61842 -1.26674,0.97393c-1.07706,0.97138 -2.09765,2.00456 -3.13425,3.01989c-0.89898,1.94724 -1.86598,3.88513 -2.84071,5.78711c-1.34749,2.95206 -2.72811,5.87439 -4.29571,8.75169l-5.52076,5.55488c0.04413,-2.30982 -0.39323,-4.6798 0.13239,-6.92945c0.38575,-1.65098 1.74044,-2.91265 2.51908,-4.41873c0.00141,-0.00273 0.00282,-0.00546 0.00424,-0.00819c-0.91483,0.8368 -1.80265,1.69065 -2.64438,2.5678c-1.13942,1.18736 -1.8539,2.79088 -3.15771,3.79497c-1.66333,1.28096 -3.71669,1.95353 -5.57504,2.9303l0.0251,-1.54709c-0.29542,0.33102 -0.48103,0.53289 -0.50614,0.54656c-1.97107,1.07286 -4.38439,0.96005 -6.57658,1.44008l1.1493,-6.18368c1.04486,-3.14693 2.11251,-6.23952 3.24766,-9.30191c-0.63893,0.57398 -1.27601,1.16503 -1.91326,1.77505l-5.23636,1.68233c-5.69422,6.91561 -11.64361,13.25196 -19.44114,18.29622l-1.42048,-5.36773c3.61457,-11.03383 8.10729,-21.53653 12.38546,-32.30992c0.11952,-0.30097 0.89788,-2.46913 1.65294,-4.5491c-0.97307,1.01545 -1.97032,2.00975 -2.88137,3.08014c-3.7822,4.44374 -7.13709,9.15915 -10.71205,13.69042c-0.76783,1.25018 -1.55013,2.49244 -2.35029,3.72541l-0.50656,-0.22177c-1.13333,1.3367 -2.30251,2.64547 -3.52564,3.91357l-0.47788,-5.85031c0.54079,-0.8495 1.0762,-1.70114 1.60645,-2.55524c0.36645,-0.97297 1.26991,-2.35395 2.27179,-3.72709c1.12724,-1.88385 2.23134,-3.78175 3.31464,-5.69713c-0.24436,0.1995 -0.48904,0.39897 -0.73411,0.59833c-1.36624,1.1114 -2.51803,2.57983 -4.12392,3.30297c-2.36709,1.06591 -5.02676,1.2996 -7.54013,1.94939l0.18508,-1.18119c-1.83433,2.98812 -3.61393,6.04174 -6.36323,8.31262c-0.15036,0.12419 -0.30305,0.24519 -0.45778,0.36339c-0.0471,0.05918 -0.09425,0.1183 -0.14145,0.17735l-0.06364,-0.02316c-1.63643,1.21129 -3.48176,2.13603 -5.19948,3.2358l1.23715,-6.17769c4.09702,-5.11659 7.77683,-10.70283 11.37267,-16.22688c-1.18736,1.29985 -2.3624,2.6163 -3.52594,3.95537c-0.86139,0.99133 -4.91052,5.75683 -4.97822,5.80515c-1.75531,1.25259 -3.92042,1.79739 -5.88063,2.69609l1.11335,-5.73158c2.33261,-3.87855 5.10323,-7.35981 7.81928,-10.92644c0.00806,-0.48005 0.12606,-0.83403 0.12606,-0.83403c1.577,-4.418 5.0355,-6.70905 7.84713,-10.35794c0.94066,-1.37033 1.87408,-2.74574 2.79819,-4.12794c0.97197,-1.4538 1.5411,-3.28324 2.92027,-4.35847c1.75661,-1.3695 4.07849,-1.79186 6.11774,-2.68778l-2.04984,5.89356c-1.46344,2.0233 -2.84552,4.09186 -4.28527,6.11571c-0.1122,0.16831 -0.21463,0.32186 -0.30487,0.45701l2.81479,-1.37275c0.07138,1.55112 0.38964,3.1215 0.47663,4.67384l3.44166,-0.90588c-1.60057,4.67872 -3.51414,8.93136 -5.84488,13.0676c2.83275,-2.38568 6.04022,-4.49193 8.77622,-6.50399l4.71186,-2.90559c-0.21082,1.28619 -0.33815,2.59185 -0.50592,3.88808c0.47774,-0.55292 0.95163,-1.10905 1.42001,-1.66987c1.28298,-1.53618 3.72842,-7.15134 7.21526,-4.72147c3.71794,2.59091 0.38825,9.28086 -0.53888,11.85977c-3.55667,9.89326 -7.75607,19.49779 -11.42777,29.34312c2.19249,-2.29728 4.851,-4.31093 6.95789,-6.70053c4.11046,-4.66202 7.67574,-9.93443 11.56403,-14.7916c3.1571,-3.94379 6.58763,-7.39642 9.52385,-11.51002l6.03714,-4.11735c0.0007,1.09727 0.07779,2.20092 0.13571,3.30297l2.95911,-1.74871c0.50179,2.00842 1.56404,3.95594 1.50537,6.02526c-0.00118,0.04147 -0.14988,0.47595 -0.38446,1.13787c3.22418,-1.32786 8.70949,-3.54336 10.91447,1.6148c0.38049,0.89009 0.20151,1.8345 -0.16073,2.78784c4.80063,-2.02072 6.63154,-0.81354 6.30387,3.7251c0.37727,-0.49633 0.75344,-0.99359 1.12834,-1.49195l5.81177,-2.85146c-0.49276,2.55022 -0.68809,5.17639 -1.47827,7.65067c-0.00059,0.00184 -4.735,8.81966 -4.74731,8.84259c-0.97263,1.81154 -1.93825,3.62411 -2.91499,5.42854c1.30914,-1.5778 2.59196,-3.17699 3.86656,-4.76926l4.30577,-3.62755c0.16039,0.3937 0.34273,0.78223 0.53572,1.16824c0.52932,-0.97016 1.05097,-1.94446 1.56408,-2.92317l3.94501,-3.90759c-0.01491,1.86763 0.19369,3.75647 0.15996,5.62231l0.49343,0.24863c-0.18737,0.35982 -0.37565,0.71918 -0.56487,1.07807c-0.03535,0.37343 -0.08504,0.7455 -0.1529,1.11585c-0.60057,3.27748 -2.85251,6.02597 -4.12182,9.10677l-0.04092,0.09924c0,0 -0.70267,1.70407 -2.36453,1.5824zM159.8731,320.4862c1.52734,-1.8156 3.03789,-3.64518 4.52184,-5.49801c-1.08911,0.57785 -2.14176,1.2266 -3.22066,1.82444c-0.23637,0.64891 -0.40283,1.10733 -0.44845,1.2385c-0.28312,0.81406 -0.56722,1.62563 -0.85273,2.43507zM166.12559,320.79404c-0.75043,0.91348 -1.50653,1.82213 -2.26701,2.72713c0.57224,-0.49161 1.13871,-0.98881 1.69592,-1.49508c0.19042,-0.41149 0.38072,-0.82227 0.57109,-1.23205zM149.87211,331.93879c0.23379,-0.23498 0.46409,-0.46704 0.68728,-0.69644c1.33817,-3.42844 2.61164,-6.85699 3.85143,-10.31915c-0.1221,0.08236 -0.24387,0.165 -0.36534,0.24795c-1.51781,3.56444 -2.88075,7.14044 -4.17337,10.76764z" fill="#00cfff" fill-rule="nonzero" stroke="none" stroke-width="0.5" stroke-linecap="butt" stroke-linejoin="miter"/><path d="M359.64584,135.5257c4.33219,-7.21893 9.02915,-14.08999 13.97857,-20.89544c2.11596,-2.90944 4.22579,-6.83855 6.87751,-9.60874c0.93164,-1.41245 1.82691,-2.8421 2.73197,-4.26464c-2.15316,1.16609 -4.28891,2.35038 -6.40119,3.54988c-6.44469,10.85718 -13.13042,21.76407 -21.27411,31.28204l-1.65818,1.93454c-0.45858,0.54156 -1.1435,0.88536 -1.90872,0.88536c-1.38071,0 -2.5,-1.11929 -2.5,-2.5c0,-0.41989 0.10352,-0.81561 0.28642,-1.16302l2.21358,-4.42715l0.01229,0.00615c0.00853,-0.02647 0.01714,-0.05291 0.02583,-0.07934c0.00268,-0.00816 5.06126,-8.64742 5.093,-8.70163c2.32151,-3.96518 4.65651,-7.9222 6.99271,-11.8787c-0.58501,-0.14502 -1.15262,-0.40774 -1.69125,-0.81761c-1.10946,-0.84425 0.76556,-6.58276 1.65683,-9.02642c-1.82244,0.26486 -1.36683,-2.26302 -2.20271,-6.38242c2.52387,-4.69895 5.38342,-9.11306 8.42102,-13.40832c1.54197,-11.14852 8.83377,-19.82579 15.72333,-28.73722c9.40196,-12.16114 18.53411,-24.38412 28.53045,-36.09834c1.58399,-1.8447 2.9041,-3.91045 4.15239,-5.99715l1.58468,-3.16937c0.40086,-0.84561 1.26228,-1.43041 2.26029,-1.43041c1.38071,0 2.5,1.11929 2.5,2.5c0,0.31558 -0.05847,0.6175 -0.16517,0.89552l-1.66215,4.65403c-0.40193,2.50021 -2.89105,7.23864 -3.96405,9.45757c-1.5751,3.25729 -3.17376,6.50476 -4.74704,9.76371c0.39388,0.44185 0.63323,1.02443 0.63323,1.66292c0,0.29691 -0.05176,0.58173 -0.14675,0.84593l-1.56269,4.68806l-0.08213,-0.02738l-0.02728,0.30077c-0.19789,0.32138 -0.39444,0.64345 -0.58973,0.96618l0.84462,-0.6817c0.43139,-0.35409 0.98341,-0.56663 1.58507,-0.56663c1.38071,0 2.5,1.11929 2.5,2.5c0,0.22872 -0.03071,0.45026 -0.08824,0.66073l-0.80685,3.22742l-0.03217,-0.00804c-0.01444,0.08984 -0.03056,0.17953 -0.04847,0.26907c-0.35174,1.758 -1.52907,3.24596 -2.394,4.81637c-2.09977,3.81249 -4.65682,7.37293 -6.81088,11.15529c-6.10196,10.71461 -12.91612,21.04953 -19.90852,31.21851c0.46511,-0.24102 0.93065,-0.48138 1.39658,-0.72103c0.4066,-0.57672 0.86229,-1.10241 1.43771,-1.50351c0.09187,-0.06404 0.18549,-0.12457 0.28069,-0.18189l-0.03107,-0.04004l1.99302,-1.54642c0.42611,-0.33726 0.9647,-0.53862 1.55032,-0.53862c0.53335,0 1.02769,0.16702 1.43358,0.4516c3.2567,-1.60503 6.52674,-3.15919 9.80137,-4.63875l0.08154,-0.01223l-0.00653,-0.01736l3.79553,-1.42694c0.28847,-0.11621 0.6036,-0.18018 0.93367,-0.18018c1.38071,0 2.5,1.11929 2.5,2.5c0,0.25848 -0.03923,0.5078 -0.11205,0.74232l-1.35774,4.7521l-0.02767,-0.00791c-0.03235,0.12154 -0.06687,0.24264 -0.10372,0.36327c-0.48708,1.59428 -1.75455,2.82518 -2.71854,4.19652c-0.11411,0.25464 -0.26959,0.4867 -0.45787,0.68765c-2.67187,4.07311 -5.44475,8.07035 -8.21151,12.07977c-7.67985,11.12914 -15.94934,22.23999 -24.40103,32.79533l-0.12445,0.05266l0.03948,0.03863l-1.79761,1.83715c-0.45395,0.46474 -1.08755,0.75324 -1.78853,0.75324c-1.38071,0 -2.5,-1.11929 -2.5,-2.5c0,-0.35982 0.07602,-0.70188 0.21286,-1.01101l-1.54731,1.80519c-0.45858,0.54156 -1.1435,0.88536 -1.90872,0.88536c-1.33714,0 -2.42909,-1.04975 -2.49668,-2.37008l-1.38075,1.53416c-0.45784,0.51296 -1.12407,0.83592 -1.86573,0.83592c-1.38071,0 -2.5,-1.11929 -2.5,-2.5c0,-0.41989 0.10352,-0.81561 0.28642,-1.16302l1.61841,-3.23682l0.03154,0.01577zM368.58995,102.13736c7.86054,-13.1026 16.05215,-26.06101 24.87407,-38.53934c1.08932,-2.14012 2.17018,-4.28453 3.24364,-6.43347c-2.5981,3.3916 -5.27014,7.6119 -8.27785,11.11376c-1.50434,2.28142 -2.99881,4.56865 -4.48915,6.85565c-1.07498,1.9057 -2.17887,3.7603 -2.53211,4.3698c-2.50751,4.32666 -4.82586,8.75838 -7.33116,13.08431c-1.61901,2.79556 -3.69357,5.34003 -5.04945,8.27226c-0.18849,0.40762 -0.32297,0.83836 -0.438,1.27704zM385.52938,60.27547c2.99771,-3.98227 6.67087,-7.54979 9.79334,-11.45344c2.15613,-2.69555 4.30766,-6.21041 6.77462,-9.21108c0.51248,-0.95065 1.00819,-1.95778 1.51706,-2.95867c-4.56876,5.86989 -9.06986,11.79143 -13.63578,17.6987c-2.83742,3.67098 -5.87047,7.34158 -8.45977,11.21506l0.90076,-0.70228c0.99446,-1.56066 1.99877,-3.11237 3.10977,-4.58827zM402.30982,59.87945c-1.29195,2.64146 -2.56922,5.29109 -3.85684,7.93601c2.16983,-3.52458 3.92876,-7.29955 6.05887,-10.85579c-0.0871,0.10271 -0.1742,0.20543 -0.26131,0.30816c-0.65047,0.8677 -1.29734,1.73828 -1.94072,2.61163zM406.36823,89.24275c-3.7407,1.70143 -7.49298,3.48591 -11.22699,5.33872l-0.93661,1.87323c-3.18652,6.36673 -6.98491,12.20511 -11.02641,17.9439c-0.07166,0.13395 -0.14329,0.26791 -0.2149,0.40189c3.28793,-3.68679 6.74135,-7.23879 9.87261,-11.06409c1.76545,-2.15676 3.568,-4.29335 5.54095,-6.26209c1.2379,-1.23526 2.11705,-2.99816 3.71833,-3.70112c0.07824,-0.03435 0.15737,-0.06358 0.23729,-0.08817l-0.03907,-0.0586l1.41315,-0.9421c0.85057,-1.19045 1.73287,-2.3454 2.66166,-3.44157z" fill="#0049ff" fill-rule="nonzero" stroke="none" stroke-width="0.5" stroke-linecap="butt" stroke-linejoin="miter"/><path d="M289.10294,309.92164c-1.95861,2.79168 -4.03263,5.48717 -6.10649,8.19316c0.07531,0.23812 0.11593,0.49167 0.11593,0.75469c0,0.59805 -0.20999,1.14705 -0.56027,1.57729l-3.11103,3.88879l-0.00352,-0.00282c-0.00386,0.00718 -0.00772,0.01435 -0.01159,0.02152c-0.77863,1.44361 -2.15265,2.47816 -3.14879,3.78123c-2.52544,3.30359 -4.82952,6.93393 -7.13873,10.38692l-0.17255,0.10655l0.04587,0.04225l-2.96373,3.21737c-0.45709,0.49943 -1.11432,0.81265 -1.8447,0.81265c-1.38071,0 -2.5,-1.11929 -2.5,-2.5c0,-0.29691 0.05176,-0.58173 0.14675,-0.84593l0.29746,-0.89239c-1.41781,0.13292 -2.80539,-0.02401 -3.9471,-0.73986c-0.34531,-0.21651 -0.52107,-0.52838 -0.58405,-0.89971c-1.29016,1.8178 -2.63442,3.59207 -4.185,5.19786c-1.0923,1.13119 -2.40262,2.17483 -3.7796,3.15184l-2.30141,3.06854c-0.45492,0.62044 -1.18914,1.02328 -2.01746,1.02328c-1.38071,0 -2.5,-1.11929 -2.5,-2.5c0,-0.44026 0.1138,-0.85394 0.3136,-1.21323l1.19672,-2.25717l0.02891,0.01533l0.00529,-0.07767c2.49371,-4.11008 5.18177,-8.17708 7.93101,-12.21233c-3.15976,3.20723 -6.30643,7.36397 -10.4535,9.30854l-4.13181,2.75454c-0.40239,0.27681 -0.88987,0.43883 -1.41519,0.43883c-1.38071,0 -2.5,-1.11929 -2.5,-2.5c0,-0.3388 0.06739,-0.66186 0.18951,-0.9565l1.16426,-3.00507l0.07052,0.02732l0.01923,-0.23144c3.08995,-5.08221 6.18474,-9.96117 8.95486,-15.22441c0.67603,-1.28446 1.2914,-2.56786 1.93383,-3.81675c-1.41032,1.21723 -2.81994,2.43711 -4.17993,3.73193c-0.10858,0.10338 -7.34367,6.9907 -7.37553,7.00985c-0.05029,0.03022 -0.10075,0.06009 -0.15138,0.08964l0.01232,0.01725l-4.04499,2.88928c-0.41378,0.3034 -0.92435,0.48258 -1.47677,0.48258c-1.38071,0 -2.5,-1.11929 -2.5,-2.5c0,-0.29871 0.05239,-0.58519 0.14848,-0.85074l0.81223,-2.42013l0.14387,0.04828l0.0071,-0.40416c3.86957,-5.3309 7.57367,-10.79452 11.26995,-16.25857c-4.49735,4.70425 -8.99727,9.40981 -13.60329,14.0153c-3.18775,3.18737 -6.45035,6.21188 -9.77364,9.257c-1.23696,1.13342 -5.58193,5.29663 -7.27754,6.18258l-3.92918,3.05603c-0.42644,0.33827 -0.96584,0.5403 -1.55244,0.5403c-1.38071,0 -2.5,-1.11929 -2.5,-2.5c0,-0.57191 0.19204,-1.09897 0.51515,-1.5202l2.38813,-3.18417c0.24512,-0.40869 0.49171,-0.81457 0.73978,-1.21805c-0.47556,0.25707 -1.10903,0.36447 -1.93363,0.08961c-2.37171,-0.79057 -1.58114,-3.16228 -1.58114,-3.16228c1.77903,-4.98399 6.21201,-8.85471 10.58041,-11.77412l3.15076,-3.15076c0.45241,-0.45241 1.07741,-0.73223 1.76777,-0.73223c1.38071,0 2.5,1.11929 2.5,2.5c0,0.18573 -0.02025,0.36673 -0.05867,0.54091l-0.81033,4.05164l-0.05206,-0.01041c-0.02676,0.16625 -0.05926,0.33196 -0.09817,0.49705c-0.32627,1.38433 -1.38025,2.45007 -2.32093,3.56426c1.08292,-1.01762 2.15459,-2.04246 3.21347,-3.06513c10.56879,-10.20737 20.33298,-21.16802 30.71422,-31.52483l0.19254,-0.06539l-0.04014,-0.05506l3.00586,-2.19143c0.41697,-0.31158 0.93444,-0.49607 1.495,-0.49607c1.38071,0 2.5,1.11929 2.5,2.5c0,0.48518 -0.13821,0.93808 -0.37741,1.32147l-2.44022,4.06703l-0.00799,-0.00479c-0.0077,0.01849 -0.01544,0.03696 -0.02322,0.05543c-2.30254,5.4664 -7.37423,10.77387 -10.70565,15.64985c-0.64155,0.93899 -1.27648,1.88137 -1.90849,2.82501c2.53196,-2.04591 5.0761,-4.00083 7.0977,-5.99566l2.4566,-2.4566c0.45241,-0.45241 1.07741,-0.73223 1.76777,-0.73223c1.38071,0 2.5,1.11929 2.5,2.5c0,0.15625 -0.01433,0.30915 -0.04176,0.45746l-0.81271,4.87625l-0.04072,-0.00679c-0.01598,0.13136 -0.03457,0.26257 -0.05599,0.39362c-0.02117,0.12959 -4.64177,8.88763 -4.81444,9.21572c-1.6177,3.07363 -3.34186,6.01673 -5.11553,8.94356c1.90168,-1.79955 3.62704,-3.79085 5.47994,-5.64374c6.9157,-6.9157 13.83142,-13.99281 20.04828,-21.5397l0.07947,-0.03865l-0.02381,-0.02243l2.3048,-2.44699c0.45613,-0.48657 1.10469,-0.79056 1.82424,-0.79056c1.38071,0 2.5,1.11929 2.5,2.5c0,0.50054 -0.1471,0.96673 -0.40043,1.35768l-2.62957,4.20731c-1.34641,3.76317 -5.16053,7.24342 -7.39176,10.49924c-0.30519,0.44533 -0.61153,0.89091 -0.91882,1.33677c0.88037,0.38688 1.49516,1.26657 1.49516,2.28986c0,0.1348 -0.01067,0.26711 -0.03121,0.39613l-0.70102,4.90717l-0.04579,-0.00654c-0.00589,0.10996 -0.01334,0.21993 -0.02248,0.32992c-0.0636,0.76568 -0.28709,1.51565 -0.60731,2.23015c0.79133,-0.81202 1.52481,-1.68188 2.31648,-2.49425c1.87834,-1.92748 3.74927,-3.75312 5.53932,-5.66426c0.62993,-0.98788 1.27063,-1.96832 1.95558,-2.91781c4.70511,-6.52232 9.91107,-12.53014 14.05882,-19.44913l0.0517,-0.03701l-0.0193,-0.01287l1.6194,-2.42909c0.44514,-0.68925 1.2201,-1.14551 2.10163,-1.14551c1.38071,0 2.5,1.11929 2.5,2.5c0,0.22872 -0.03071,0.45026 -0.08824,0.66073l-0.80685,3.22742l-0.20122,-0.0503c0.01107,0.1728 0.02214,0.3456 0.03321,0.5184l-2.7187,3.70738c0,0 -0.67106,0.89475 -1.71396,1.03848zM207.24901,328.9495c-0.71578,0.8452 -1.3247,1.73829 -1.76257,2.6742c0.57944,-0.8977 1.16686,-1.78753 1.76257,-2.6742z" fill="#0049ff" fill-rule="nonzero" stroke="none" stroke-width="0.5" stroke-linecap="butt" stroke-linejoin="miter"/><path d="M284.41705,335.05325c-2.23607,-1.11803 -1.11803,-3.3541 -1.11803,-3.3541l1.28875,-2.29064c3.80131,-3.78687 6.92173,-7.42753 11.09434,-10.89955c1.33053,-1.10713 2.45272,-2.5307 3.99391,-3.31858c2.22795,-1.13896 4.7495,-1.57679 7.12425,-2.36518l-0.15034,4.29564c0.85042,-1.50943 1.73395,-2.99254 2.88477,-4.2751c1.7463,-1.94621 3.89655,-3.48798 5.84482,-5.23198l-0.42833,7.01772c-1.72583,2.91936 -3.3866,5.87688 -5.11382,8.79542c-0.60214,1.01746 -1.21314,2.02967 -1.83051,3.03801c2.67657,-2.80237 5.13107,-5.69491 7.6695,-8.67516c1.16936,-1.37289 1.9547,-3.21328 3.52043,-4.10809c2.28027,-1.30317 5.03923,-1.48245 7.55884,-2.22368l-2.76036,7.14618c-2.63003,3.94493 -5.04713,7.96913 -7.48949,12.03223c-0.07212,0.11998 -0.14501,0.23952 -0.21848,0.35875c1.67298,-1.78705 3.28127,-3.647 4.86384,-5.5268c1.11606,-1.45829 2.25039,-2.82431 2.42762,-3.05003c0.45513,-0.57968 0.91031,-1.15927 1.36566,-1.7387c-0.02549,0.01076 -0.05096,0.02156 -0.07642,0.0324l1.29301,-5.75181c2.00977,-2.73702 3.7506,-5.67065 5.84741,-8.34156c1.69053,-2.15338 3.98141,-3.76838 5.80232,-5.8127c3.98714,-4.47632 7.14592,-10.28517 12.15948,-13.80722c2.12502,-1.49284 4.55386,-2.4979 6.83079,-3.74685l-0.70886,4.37564c2.42332,-2.53766 4.78858,-5.15305 7.07801,-7.89928l6.87345,-3.76577c-0.96012,2.47661 -1.55946,5.12534 -2.88035,7.42983c-0.006,0.01047 -6.88506,7.28487 -6.93979,7.34275c-3.42948,3.62708 -6.8577,7.25272 -10.24815,10.91637c-0.87721,0.94789 -1.75128,1.89645 -2.62206,2.84617c3.73984,-1.73502 8.21258,-3.9561 11.24774,-6.42338c2.3382,-1.90073 3.97672,-4.52935 5.90063,-6.84851c4.23713,-5.1076 7.68186,-10.19999 10.68262,-16.12685c0.70965,-1.40165 3.06156,-7.28463 3.46251,-7.69226c1.54563,-1.57141 3.85629,-2.13596 5.78443,-3.20393l0,0.00101c2.32903,-4.83875 5.29074,-9.49955 8.03238,-14.00139c0.18952,-0.31119 0.37035,-0.61184 0.54462,-0.90338c0.31631,-1.07773 0.6334,-2.15523 0.95087,-3.23262c0.12736,-0.97336 0.66776,-2.15976 0.69172,-3.09048c0.0737,-2.86221 0.43769,-5.73645 1.12849,-8.51503c2.47942,-9.97283 6.76791,-19.30681 10.55789,-28.81695c0.7782,-2.50701 1.55009,-5.01603 2.31076,-7.52866c-0.31851,0.09984 -0.63351,0.20608 -0.94261,0.32313l1.14639,-5.44136c3.01131,-7.59625 6.46134,-14.83404 10.51458,-21.84377c-2.2403,3.08777 -4.48884,6.16948 -6.80524,9.19863c-0.22768,0.29773 -6.24244,8.1804 -6.35086,8.2491c-1.73069,1.09649 -3.9591,1.05635 -5.93866,1.58453l1.29614,-5.566c1.87505,-3.12405 3.70344,-6.29408 5.48762,-9.4945c-1.52897,0.96843 -3.12898,1.83398 -4.6638,2.79393l1.53662,-7.69003c6.97362,-12.20564 13.67344,-24.55611 19.30464,-37.47211c1.66466,-3.81813 2.46887,-8.24542 4.34794,-11.92943c-5.43327,4.02377 -9.64812,10.08761 -13.8767,15.2561c-5.84235,7.14097 -11.68102,14.15748 -17.0576,21.66237c-2.18319,3.04741 -4.41314,6.05448 -6.66343,9.04947c-1.87188,3.14202 -3.83339,6.22945 -5.92708,9.23406l-4.44565,3.14835c0.20899,-1.87173 0.15299,-3.80138 0.38339,-5.66842l-0.18419,-0.11957c0.08357,-0.12002 0.167,-0.24016 0.2503,-0.36042c0.10094,-0.66011 0.24413,-1.31098 0.4544,-1.94718c0.55442,-1.67748 2.11401,-2.83131 3.17452,-4.24433c0.91255,-1.21588 1.83377,-2.42529 2.75312,-3.6361c2.49868,-4.08746 4.88505,-8.26996 7.19165,-12.50667c-0.3908,0.08899 -0.85736,0.07638 -1.40967,-0.10772c-2.37171,-0.79057 -1.58114,-3.16228 -1.58114,-3.16228l0.82045,-2.46136c0,0 0.79057,-2.37171 3.16228,-1.58114c1.41639,0.47213 1.70495,1.50817 1.70761,2.2662c0.56672,-1.07697 1.12919,-2.15635 1.68793,-3.2375c-0.12249,-0.42451 -0.12249,-0.75926 -0.12249,-0.75926c0,-2.49572 0.11768,-4.92427 0.3147,-7.32409c-1.53853,2.16263 -3.18227,4.17309 -5.00931,5.74884c-1.98123,1.70874 -4.33782,2.92636 -6.50673,4.38955l1.82244,-7.55408c0.66159,-1.28304 1.33502,-2.55525 2.01984,-3.81981c0.02413,-0.1697 0.0653,-0.33392 0.12172,-0.49085l0.802,-2.40599l0.03426,0.01142l-0.01001,-0.08074c0.24532,-0.61356 0.49306,-1.22627 0.74302,-1.83821l0.14322,-0.39386c0.03812,-1.5989 0.98024,-3.05277 1.64686,-4.50658c0.58821,-1.28283 1.2364,-2.55217 1.91824,-3.81186c5.56103,-12.63218 11.69249,-25.07019 16.66813,-37.93335c2.72904,-9.65942 5.23893,-19.3748 7.6923,-29.10645c-1.42579,1.91654 -2.88115,3.81323 -4.27919,5.81087c-4.4749,6.39417 -8.50681,13.22637 -12.68491,19.82064c-1.33786,2.11153 -2.60838,4.26505 -3.93013,6.38669c-0.97559,1.56599 -1.45914,3.5965 -2.95003,4.6834c-0.1452,0.10585 -0.29509,0.20227 -0.44905,0.29048l0.0362,0.0543l-2.43292,1.62194c-0.40239,0.27681 -0.88987,0.43883 -1.41519,0.43883c-1.38071,0 -2.5,-1.11929 -2.5,-2.5c0,-0.41989 0.10352,-0.81561 0.28642,-1.16302l1.8437,-3.6874c6.51601,-13.03203 11.94456,-26.65691 19.08436,-39.36559c2.45026,-4.36141 5.33319,-8.48079 7.83086,-12.81531c2.83049,-4.91209 4.80288,-11.58829 8.80318,-15.67677l2.75199,-4.12799c0.44514,-0.68925 1.2201,-1.14551 2.10163,-1.14551c1.38071,0 2.5,1.11929 2.5,2.5c0,0.29691 -0.05176,0.58173 -0.14675,0.84593l-0.765,2.29501c-1.64711,8.27304 -3.71684,16.50062 -5.76251,24.68432c-0.34625,1.38501 -0.69228,2.77003 -1.03854,4.15493l0.19026,1.33183l-0.04275,0.00611c0.02571,0.16201 0.04714,0.32498 0.06387,0.48901c0.18574,1.82167 -0.88523,3.55366 -1.33919,5.32761c-1.23951,4.84367 -2.52452,9.67635 -3.78668,14.51417c-1.00131,3.83796 -2.17024,7.61975 -3.46317,11.35963c5.604,-9.80867 11.41281,-19.49348 17.66898,-28.85619l0.16212,-0.09232l-0.04888,-0.04371l2.14129,-2.39451c0.458,-0.5167 1.1267,-0.84237 1.87147,-0.84237c1.38071,0 2.5,1.11929 2.5,2.5c0,0.2764 -0.04485,0.54232 -0.12768,0.79088l-1.4533,4.72323c-0.39764,2.74734 -2.45983,7.12319 -3.52949,9.62408c-2.62167,6.12954 -5.2476,12.25726 -7.8714,18.38589c-1.50552,3.51656 -3.02534,7.02789 -4.54496,10.53959c0.20993,1.45086 0.38242,2.90022 0.16202,4.33388c-0.27005,1.75666 -1.57324,3.18748 -2.36468,4.77883c-2.21952,4.46281 -4.35372,8.95719 -6.48283,13.46386c-1.4046,2.97311 -2.86336,5.92175 -4.35408,8.85557c0.24123,0.07808 0.49478,0.20143 0.7591,0.38168c1.15281,0.78615 1.2234,1.77695 1.06072,2.49905c3.53701,-4.32929 7.28921,-8.54591 11.86294,-11.61993l6.05571,-1.46632c-0.01554,2.45999 0.12409,4.92585 -0.04661,7.37996c-0.46343,6.66237 -4.43036,13.63267 -7.60134,19.75461l3.94704,-2.78003c-0.13535,2.67636 0.23291,5.42658 -0.40604,8.02907c-0.41866,1.70522 -1.78367,3.02502 -2.67878,4.53559c-1.62533,2.74288 -3.1518,5.54661 -4.57717,8.39853c-0.53862,1.07768 -1.0817,2.15505 -1.62931,3.23161c2.54203,-3.47509 5.1163,-6.92473 7.80644,-10.28417l5.68354,-3.19497c0.04286,2.02831 0.79741,7.73403 -0.52437,10.53284c-2.64438,5.59936 -6.98863,10.44093 -9.97915,15.86386c-0.34176,0.61973 -0.67736,1.2432 -1.00727,1.87001l4.09957,-2.0268c0.13088,2.35859 0.73833,4.73898 0.39265,7.07577c-0.01121,0.07578 -4.10104,9.15209 -4.20458,9.38218c-0.78851,1.75225 -1.60801,3.48696 -2.44846,5.21013l1.87446,-1.36563c0.03636,-0.07593 0.07279,-0.15183 0.10928,-0.2277l4.64184,-5.49241c0.28941,2.39833 1.06669,4.78743 0.86823,7.19499c-0.07261,0.88089 -0.39239,1.70557 -0.77098,2.51684c0.00645,0.19517 0.00516,0.39099 -0.00499,0.58757c-0.00238,0.04619 -0.22411,0.57415 -0.56493,1.36156l2.35791,-1.72888c0.18978,2.42483 0.97319,4.876 0.56934,7.27448c-0.29808,1.7703 -1.72256,3.15026 -2.58932,4.72237c-2.18587,3.9647 -4.74771,7.66002 -7.08925,11.52997c-1.96802,3.25262 -3.86791,6.54583 -5.72903,9.86198c-3.11918,7.17921 -6.73069,14.0669 -9.23828,21.51064l-4.31419,3.26799c-0.5468,0.98228 -1.09656,1.96276 -1.65004,2.94097l-5.34504,4.28645c-0.25294,-1.14923 -0.6117,-2.28612 -0.93322,-3.42736c-1.52608,2.78267 -3.09157,5.68465 -4.16006,8.54906c-2.94404,7.89239 -4.67998,15.78447 -9.07435,23.08751l-0.24696,0.11317c-0.63838,0.53946 -1.5545,0.75355 -2.36971,1.08586l-0.47506,0.21768c-0.12346,-0.25882 -0.27666,-0.51097 -0.4383,-0.76122c-0.32164,0.65807 -0.63975,1.25058 -0.93769,1.7156c-0.46128,0.9207 -0.92275,1.84131 -1.38445,2.7618l-5.09639,3.34607c0.36425,-1.88532 0.56822,-3.81152 0.96391,-5.68882l-0.19207,-0.16689c0.14461,-0.29022 0.28925,-0.58043 0.43391,-0.87062c0.03196,-0.1239 0.06507,-0.24752 0.09943,-0.37081c-2.1226,2.61202 -4.38848,5.06185 -6.62124,6.8825c-3.69346,3.01173 -9.34739,5.76255 -13.68305,7.7282c-0.69354,0.31443 -1.56186,0.23402 -2.18231,0.67549c-1.82571,1.29904 -4.54743,5.25723 -5.8577,6.72578c-2.90481,3.25571 -6.19726,6.23602 -9.28064,9.32602l-3.94588,1.78319c-1.56413,1.93949 -3.11129,3.89829 -4.64038,5.87998l-3.33331,1.48008c-1.90961,1.97684 -3.90604,3.85567 -6.04087,5.56879l-5.70362,2.83256c0.3066,-2.55093 0.38485,-5.13981 0.9198,-7.65279c0.28572,-1.34219 0.98447,-2.82089 1.77864,-4.24126c-1.07811,1.08228 -2.1887,2.11493 -3.3359,3.06236c-1.85059,1.52834 -3.45314,4.44153 -5.84196,4.20905c-0.70917,-0.06902 -1.28036,-0.51224 -1.71893,-1.14113c-0.76174,1.14256 -1.52346,2.28512 -2.28518,3.42769l-4.67774,3.3843c-0.19942,-2.39709 -0.92127,-4.80769 -0.59827,-7.19128c0.23716,-1.75012 1.48031,-3.20709 2.2244,-4.80881c1.75334,-3.77422 3.80976,-7.32786 5.7222,-10.96345c-2.05939,1.65252 -4.36435,3.09132 -6.22006,5.14625c-1.70416,1.88711 -3.17255,3.98798 -4.96741,5.78903l-0.35215,0.99117c0,0 -1.11803,2.23607 -3.3541,1.11803zM404.9588,138.94766c0.04753,-0.05951 0.09507,-0.11902 0.14262,-0.17852c-0.01497,-0.00219 -0.0299,-0.00451 -0.04478,-0.00696c-0.03262,0.06183 -0.06523,0.12365 -0.09785,0.18548zM403.50355,131.56441c1.22659,-2.46754 2.44288,-4.93293 3.65498,-7.38849c0.87526,-2.27563 1.7676,-4.54495 2.67403,-6.80899c-1.0523,1.4619 -2.10615,2.92314 -3.15818,4.38622c-0.19983,1.251 -0.37113,2.50611 -0.50949,3.76576c0,0 -0.23266,2.09395 -2.19307,2.22375c-0.16954,1.27535 -0.32795,2.54691 -0.46827,3.82176zM407.55713,218.27696c-1.73757,5.52047 -3.45709,11.04666 -5.09026,16.60036c-0.32596,1.10845 -0.65195,2.21689 -0.97795,3.32533c0.89857,-1.37155 1.69588,-2.78046 2.45099,-4.21613l-0.10212,-1.41504c1.62466,-2.68197 3.23103,-5.38236 4.79401,-8.10871c1.82473,-3.93739 3.49428,-7.94121 5.14704,-11.95222c-0.85823,1.37395 -1.48823,2.9702 -2.77306,3.93093c-1.0473,0.78312 -2.22966,1.33999 -3.44867,1.83547zM429.45787,71.30407c0.50884,-1.18853 1.03716,-2.37629 1.57035,-3.5654c-6.70515,11.09452 -12.99257,22.47421 -19.24395,33.81433c-0.80402,2.57861 -1.58808,5.16517 -2.31044,7.76372c3.32035,-4.68016 6.57897,-9.40207 9.6846,-14.22784c3.42438,-7.93575 6.90177,-15.84856 10.29945,-23.7848zM426.22143,28.70027c-1.85533,3.45613 -3.7304,6.85775 -5.78581,10.22196c-3.95931,6.48043 -7.46826,13.15993 -10.80653,19.92334c0.75364,-1.13261 1.51742,-2.25569 2.29432,-3.3658c2.85172,-4.07481 5.94552,-7.70065 8.51541,-11.97934l0.04669,-0.03862l-0.01506,-0.01004l1.6194,-2.42909c0.31322,-0.48499 0.78974,-0.85462 1.35178,-1.03111c0.93876,-3.7548 1.87806,-7.51853 2.77981,-11.2913z" fill="#4c00ff" fill-rule="nonzero" stroke="none" stroke-width="0.5" stroke-linecap="butt" stroke-linejoin="miter"/></g></g></svg>